<svg width="150" height="137" viewBox="0 0 150 137" fill="none" xmlns="http://www.w3.org/2000/svg">
<g filter="url(#filter0_f_3_2387)">
<rect x="35" y="35.0001" width="80" height="67" rx="20.2927" fill="#799AFF"/>
</g>
<mask id="path-2-inside-1_3_2387" fill="white">
<path fill-rule="evenodd" clip-rule="evenodd" d="M34.5323 24.2625C34.7004 24.0944 34.9285 23.9999 35.1662 23.9999H115.03C115.268 23.9999 115.496 24.0944 115.664 24.2625L126.737 35.336C126.906 35.5042 127 35.7322 127 35.97V116.228C127 116.466 126.906 116.694 126.737 116.862L115.862 127.737C115.694 127.905 115.466 128 115.228 128H34.97C34.7323 128 34.5042 127.905 34.3361 127.737L23.2627 116.664C23.0945 116.496 23.0001 116.268 23.0001 116.03V36.1661C23.0001 35.9283 23.0945 35.7003 23.2627 35.5322L34.5323 24.2625Z"/>
</mask>
<path fill-rule="evenodd" clip-rule="evenodd" d="M34.5323 24.2625C34.7004 24.0944 34.9285 23.9999 35.1662 23.9999H115.03C115.268 23.9999 115.496 24.0944 115.664 24.2625L126.737 35.336C126.906 35.5042 127 35.7322 127 35.97V116.228C127 116.466 126.906 116.694 126.737 116.862L115.862 127.737C115.694 127.905 115.466 128 115.228 128H34.97C34.7323 128 34.5042 127.905 34.3361 127.737L23.2627 116.664C23.0945 116.496 23.0001 116.268 23.0001 116.03V36.1661C23.0001 35.9283 23.0945 35.7003 23.2627 35.5322L34.5323 24.2625Z" fill="url(#paint0_linear_3_2387)"/>
<path d="M23.2627 35.5322L22.6648 34.9343L23.2627 35.5322ZM23.2627 116.664L23.8605 116.066L23.2627 116.664ZM34.3361 127.737L34.934 127.139L34.3361 127.737ZM115.862 127.737L116.46 128.335L116.46 128.335L115.862 127.737ZM126.737 116.862L127.335 117.46L126.737 116.862ZM126.737 35.336L126.14 35.9339L126.737 35.336ZM34.5323 24.2625L33.9344 23.6647L34.5323 24.2625ZM115.664 24.2625L116.262 23.6647L115.664 24.2625ZM115.03 23.1544H35.1662V24.8455H115.03V23.1544ZM127.335 34.7382L116.262 23.6647L115.066 24.8604L126.14 35.9339L127.335 34.7382ZM127.846 116.228V35.97H126.155V116.228H127.846ZM116.46 128.335L127.335 117.46L126.14 116.264L115.264 127.139L116.46 128.335ZM34.97 128.845H115.228V127.154H34.97V128.845ZM22.6648 117.262L33.7382 128.335L34.934 127.139L23.8605 116.066L22.6648 117.262ZM22.1545 36.1661V116.03H23.8456V36.1661H22.1545ZM33.9344 23.6647L22.6648 34.9343L23.8605 36.13L35.1302 24.8604L33.9344 23.6647ZM23.8456 36.1661C23.8456 36.1526 23.851 36.1396 23.8605 36.13L22.6648 34.9343C22.3381 35.261 22.1545 35.7041 22.1545 36.1661H23.8456ZM23.8605 116.066C23.851 116.056 23.8456 116.043 23.8456 116.03H22.1545C22.1545 116.492 22.3381 116.935 22.6648 117.262L23.8605 116.066ZM34.97 127.154C34.9565 127.154 34.9435 127.149 34.934 127.139L33.7382 128.335C34.0649 128.662 34.508 128.845 34.97 128.845V127.154ZM115.264 127.139C115.254 127.149 115.241 127.154 115.228 127.154V128.845C115.69 128.845 116.133 128.662 116.46 128.335L115.264 127.139ZM126.155 116.228C126.155 116.241 126.149 116.254 126.14 116.264L127.335 117.46C127.662 117.133 127.846 116.69 127.846 116.228H126.155ZM126.14 35.9339C126.149 35.9435 126.155 35.9565 126.155 35.97H127.846C127.846 35.508 127.662 35.0649 127.335 34.7382L126.14 35.9339ZM35.1662 23.1544C34.7042 23.1544 34.2611 23.338 33.9344 23.6647L35.1302 24.8604C35.1397 24.8508 35.1527 24.8455 35.1662 24.8455V23.1544ZM115.03 24.8455C115.044 24.8455 115.057 24.8508 115.066 24.8604L116.262 23.6647C115.935 23.338 115.492 23.1544 115.03 23.1544V24.8455Z" fill="url(#paint1_linear_3_2387)" fill-opacity="0.12" mask="url(#path-2-inside-1_3_2387)"/>
<g filter="url(#filter1_f_3_2387)">
<path d="M30.4349 39.5327L30.0122 39.1101L30.4349 39.5327ZM30.4349 112.637L30.8575 112.214L30.4349 112.637ZM38.3629 120.565L37.9402 120.987L38.3629 120.565ZM119.565 39.3621L119.142 39.7847L119.565 39.3621ZM38.5327 31.4349L38.1101 31.0122L38.5327 31.4349ZM111.638 31.4349L112.06 31.0122L111.638 31.4349ZM111.004 30.5746H39.1667V31.77H111.004V30.5746ZM119.987 38.9395L112.06 31.0122L111.215 31.8575L119.142 39.7847L119.987 38.9395ZM120.425 112.174V39.9961H119.23V112.174H120.425ZM112.23 120.987L119.987 113.23L119.142 112.385L111.385 120.142L112.23 120.987ZM38.9968 121.425H111.174V120.23H38.9968V121.425ZM30.0122 113.059L37.9402 120.987L38.7855 120.142L30.8575 112.214L30.0122 113.059ZM29.5746 40.1667V112.003H30.77V40.1667H29.5746ZM38.1101 31.0122L30.0122 39.1101L30.8575 39.9554L38.9554 31.8575L38.1101 31.0122ZM30.77 40.1667C30.77 40.0874 30.8015 40.0114 30.8575 39.9554L30.0122 39.1101C29.732 39.3903 29.5746 39.7704 29.5746 40.1667H30.77ZM30.8575 112.214C30.8015 112.158 30.77 112.082 30.77 112.003H29.5746C29.5746 112.399 29.732 112.779 30.0122 113.059L30.8575 112.214ZM38.9968 120.23C38.9176 120.23 38.8416 120.198 38.7855 120.142L37.9402 120.987C38.2205 121.268 38.6005 121.425 38.9968 121.425V120.23ZM111.385 120.142C111.329 120.198 111.253 120.23 111.174 120.23V121.425C111.57 121.425 111.95 121.268 112.23 120.987L111.385 120.142ZM119.23 112.174C119.23 112.253 119.198 112.329 119.142 112.385L119.987 113.23C120.268 112.95 120.425 112.57 120.425 112.174H119.23ZM119.142 39.7847C119.198 39.8408 119.23 39.9168 119.23 39.9961H120.425C120.425 39.5998 120.268 39.2197 119.987 38.9395L119.142 39.7847ZM39.1667 30.5746C38.7704 30.5746 38.3903 30.732 38.1101 31.0122L38.9554 31.8575C39.0114 31.8015 39.0874 31.77 39.1667 31.77V30.5746ZM111.004 31.77C111.083 31.77 111.159 31.8015 111.215 31.8575L112.06 31.0122C111.78 30.732 111.4 30.5746 111.004 30.5746V31.77Z" fill="#02AACF"/>
</g>
<mask id="path-5-inside-2_3_2387" fill="white">
<path fill-rule="evenodd" clip-rule="evenodd" d="M38.5322 31.4349C38.7003 31.2667 38.9283 31.1723 39.1661 31.1723H111.004C111.242 31.1723 111.47 31.2667 111.638 31.4349L119.565 39.362C119.733 39.5301 119.827 39.7581 119.827 39.9959V112.173C119.827 112.411 119.733 112.639 119.565 112.807L111.807 120.565C111.639 120.733 111.411 120.827 111.173 120.827H38.9967C38.7589 120.827 38.5308 120.733 38.3627 120.565L30.4349 112.637C30.2667 112.469 30.1723 112.241 30.1723 112.003V40.1661C30.1723 39.9283 30.2667 39.7003 30.4349 39.5322L38.5322 31.4349Z"/>
</mask>
<path fill-rule="evenodd" clip-rule="evenodd" d="M38.5322 31.4349C38.7003 31.2667 38.9283 31.1723 39.1661 31.1723H111.004C111.242 31.1723 111.47 31.2667 111.638 31.4349L119.565 39.362C119.733 39.5301 119.827 39.7581 119.827 39.9959V112.173C119.827 112.411 119.733 112.639 119.565 112.807L111.807 120.565C111.639 120.733 111.411 120.827 111.173 120.827H38.9967C38.7589 120.827 38.5308 120.733 38.3627 120.565L30.4349 112.637C30.2667 112.469 30.1723 112.241 30.1723 112.003V40.1661C30.1723 39.9283 30.2667 39.7003 30.4349 39.5322L38.5322 31.4349Z" fill="url(#paint2_linear_3_2387)"/>
<path d="M30.4349 39.5322L30.1359 39.2332L30.4349 39.5322ZM30.4349 112.637L30.1359 112.936L30.4349 112.637ZM38.3627 120.565L38.6616 120.266L38.3627 120.565ZM119.565 39.362L119.266 39.6609L119.565 39.362ZM38.5322 31.4349L38.2332 31.1359L38.5322 31.4349ZM111.638 31.4349L111.937 31.1359L111.638 31.4349ZM111.004 30.7495H39.1661V31.595H111.004V30.7495ZM119.864 39.063L111.937 31.1359L111.339 31.7338L119.266 39.6609L119.864 39.063ZM120.25 112.173V39.9959H119.405V112.173H120.25ZM112.106 120.864L119.864 113.106L119.266 112.508L111.508 120.266L112.106 120.864ZM38.9967 121.25H111.173V120.405H38.9967V121.25ZM30.1359 112.936L38.0638 120.864L38.6616 120.266L30.7338 112.338L30.1359 112.936ZM29.7495 40.1661V112.003H30.595V40.1661H29.7495ZM38.2332 31.1359L30.1359 39.2332L30.7338 39.8311L38.8311 31.7338L38.2332 31.1359ZM30.595 40.1661C30.595 40.0405 30.645 39.92 30.7338 39.8311L30.1359 39.2332C29.8885 39.4806 29.7495 39.8162 29.7495 40.1661H30.595ZM30.7338 112.338C30.645 112.249 30.595 112.129 30.595 112.003H29.7495C29.7495 112.353 29.8885 112.689 30.1359 112.936L30.7338 112.338ZM38.9967 120.405C38.871 120.405 38.7505 120.355 38.6616 120.266L38.0638 120.864C38.3112 121.111 38.6467 121.25 38.9967 121.25V120.405ZM111.508 120.266C111.42 120.355 111.299 120.405 111.173 120.405V121.25C111.523 121.25 111.859 121.111 112.106 120.864L111.508 120.266ZM119.405 112.173C119.405 112.299 119.355 112.42 119.266 112.508L119.864 113.106C120.111 112.859 120.25 112.523 120.25 112.173H119.405ZM119.266 39.6609C119.355 39.7498 119.405 39.8703 119.405 39.9959H120.25C120.25 39.646 120.111 39.3104 119.864 39.063L119.266 39.6609ZM39.1661 30.7495C38.8162 30.7495 38.4806 30.8885 38.2332 31.1359L38.8311 31.7338C38.92 31.645 39.0405 31.595 39.1661 31.595V30.7495ZM111.004 31.595C111.129 31.595 111.25 31.645 111.339 31.7338L111.937 31.1359C111.689 30.8885 111.354 30.7495 111.004 30.7495V31.595Z" fill="url(#paint3_linear_3_2387)" mask="url(#path-5-inside-2_3_2387)"/>
<g clip-path="url(#clip0_3_2387)">
<g filter="url(#filter2_f_3_2387)">
<rect x="49.9998" y="53" width="50" height="47" rx="23.5" fill="#4A76FF" fill-opacity="0.4"/>
</g>
<mask id="mask0_3_2387" style="mask-type:alpha" maskUnits="userSpaceOnUse" x="30" y="31" width="90" height="90">
<mask id="path-8-inside-3_3_2387" fill="white">
<path fill-rule="evenodd" clip-rule="evenodd" d="M38.5322 31.4349C38.7004 31.2668 38.9284 31.1723 39.1662 31.1723H111.004C111.242 31.1723 111.47 31.2668 111.638 31.4349L119.565 39.362C119.733 39.5301 119.827 39.7581 119.827 39.9959V112.173C119.827 112.411 119.733 112.639 119.565 112.807L111.807 120.565C111.639 120.733 111.411 120.827 111.173 120.827H38.9968C38.7591 120.827 38.531 120.733 38.3629 120.565L30.4349 112.637C30.2668 112.469 30.1723 112.241 30.1723 112.003V40.1662C30.1723 39.9284 30.2668 39.7004 30.4349 39.5322L38.5322 31.4349Z"/>
</mask>
<path fill-rule="evenodd" clip-rule="evenodd" d="M38.5322 31.4349C38.7004 31.2668 38.9284 31.1723 39.1662 31.1723H111.004C111.242 31.1723 111.47 31.2668 111.638 31.4349L119.565 39.362C119.733 39.5301 119.827 39.7581 119.827 39.9959V112.173C119.827 112.411 119.733 112.639 119.565 112.807L111.807 120.565C111.639 120.733 111.411 120.827 111.173 120.827H38.9968C38.7591 120.827 38.531 120.733 38.3629 120.565L30.4349 112.637C30.2668 112.469 30.1723 112.241 30.1723 112.003V40.1662C30.1723 39.9284 30.2668 39.7004 30.4349 39.5322L38.5322 31.4349Z" fill="url(#paint4_linear_3_2387)"/>
<path d="M30.4349 39.5322L30.136 39.2333L30.4349 39.5322ZM30.4349 112.637L30.7338 112.338L30.4349 112.637ZM38.3629 120.565L38.6618 120.266L38.3629 120.565ZM119.565 39.362L119.266 39.6609L119.565 39.362ZM38.5322 31.4349L38.2333 31.136L38.5322 31.4349ZM111.638 31.4349L111.937 31.136L111.638 31.4349ZM111.004 30.7495H39.1662V31.5951H111.004V30.7495ZM119.864 39.063L111.937 31.136L111.339 31.7338L119.266 39.6609L119.864 39.063ZM120.25 112.173V39.9959H119.405V112.173H120.25ZM112.106 120.864L119.864 113.106L119.266 112.508L111.508 120.266L112.106 120.864ZM38.9968 121.25H111.173V120.405H38.9968V121.25ZM30.136 112.936L38.0639 120.864L38.6618 120.266L30.7338 112.338L30.136 112.936ZM29.7495 40.1662V112.003H30.5951V40.1662H29.7495ZM38.2333 31.136L30.136 39.2333L30.7338 39.8312L38.8312 31.7338L38.2333 31.136ZM30.5951 40.1662C30.5951 40.0405 30.645 39.92 30.7338 39.8312L30.136 39.2333C29.8885 39.4807 29.7495 39.8163 29.7495 40.1662H30.5951ZM30.7338 112.338C30.645 112.249 30.5951 112.129 30.5951 112.003H29.7495C29.7495 112.353 29.8885 112.688 30.136 112.936L30.7338 112.338ZM38.9968 120.405C38.8712 120.405 38.7507 120.355 38.6618 120.266L38.0639 120.864C38.3114 121.111 38.6469 121.25 38.9968 121.25V120.405ZM111.508 120.266C111.419 120.355 111.299 120.405 111.173 120.405V121.25C111.523 121.25 111.859 121.111 112.106 120.864L111.508 120.266ZM119.405 112.173C119.405 112.299 119.355 112.419 119.266 112.508L119.864 113.106C120.111 112.859 120.25 112.523 120.25 112.173H119.405ZM119.266 39.6609C119.355 39.7497 119.405 39.8703 119.405 39.9959H120.25C120.25 39.646 120.111 39.3104 119.864 39.063L119.266 39.6609ZM39.1662 30.7495C38.8163 30.7495 38.4807 30.8885 38.2333 31.136L38.8312 31.7338C38.92 31.645 39.0405 31.5951 39.1662 31.5951V30.7495ZM111.004 31.5951C111.13 31.5951 111.25 31.645 111.339 31.7338L111.937 31.136C111.689 30.8885 111.354 30.7495 111.004 30.7495V31.5951Z" fill="url(#paint5_linear_3_2387)" mask="url(#path-8-inside-3_3_2387)"/>
</mask>
<g mask="url(#mask0_3_2387)">
<g filter="url(#filter3_f_3_2387)">
<rect x="30.8" y="89" width="88.4" height="57.2" rx="28.6" fill="#4A76FF" fill-opacity="0.4"/>
</g>
</g>
</g>
<defs>
<filter id="filter0_f_3_2387" x="0.333336" y="0.333397" width="149.333" height="136.333" filterUnits="userSpaceOnUse" color-interpolation-filters="sRGB">
<feFlood flood-opacity="0" result="BackgroundImageFix"/>
<feBlend mode="normal" in="SourceGraphic" in2="BackgroundImageFix" result="shape"/>
<feGaussianBlur stdDeviation="17.3333" result="effect1_foregroundBlur_3_2387"/>
</filter>
<filter id="filter1_f_3_2387" x="24.793" y="25.793" width="100.414" height="100.414" filterUnits="userSpaceOnUse" color-interpolation-filters="sRGB">
<feFlood flood-opacity="0" result="BackgroundImageFix"/>
<feBlend mode="normal" in="SourceGraphic" in2="BackgroundImageFix" result="shape"/>
<feGaussianBlur stdDeviation="2.3908" result="effect1_foregroundBlur_3_2387"/>
</filter>
<filter id="filter2_f_3_2387" x="25.9998" y="29" width="98" height="95" filterUnits="userSpaceOnUse" color-interpolation-filters="sRGB">
<feFlood flood-opacity="0" result="BackgroundImageFix"/>
<feBlend mode="normal" in="SourceGraphic" in2="BackgroundImageFix" result="shape"/>
<feGaussianBlur stdDeviation="12" result="effect1_foregroundBlur_3_2387"/>
</filter>
<filter id="filter3_f_3_2387" x="-3.86668" y="54.3333" width="157.733" height="126.533" filterUnits="userSpaceOnUse" color-interpolation-filters="sRGB">
<feFlood flood-opacity="0" result="BackgroundImageFix"/>
<feBlend mode="normal" in="SourceGraphic" in2="BackgroundImageFix" result="shape"/>
<feGaussianBlur stdDeviation="17.3333" result="effect1_foregroundBlur_3_2387"/>
</filter>
<linearGradient id="paint0_linear_3_2387" x1="75.0001" y1="128" x2="75.0001" y2="23.9999" gradientUnits="userSpaceOnUse">
<stop stop-color="#181134"/>
<stop offset="1" stop-color="#222C5F"/>
</linearGradient>
<linearGradient id="paint1_linear_3_2387" x1="121.051" y1="23.9999" x2="69.9323" y2="138.797" gradientUnits="userSpaceOnUse">
<stop stop-color="white"/>
<stop offset="1" stop-color="white" stop-opacity="0"/>
</linearGradient>
<linearGradient id="paint2_linear_3_2387" x1="74.9999" y1="120.827" x2="74.9999" y2="31.1723" gradientUnits="userSpaceOnUse">
<stop stop-color="#181134"/>
<stop offset="1" stop-color="#222C5F"/>
</linearGradient>
<linearGradient id="paint3_linear_3_2387" x1="114.317" y1="30.7641" x2="38.6422" y2="121.236" gradientUnits="userSpaceOnUse">
<stop stop-color="#A7CAFF" stop-opacity="0.6"/>
<stop offset="1" stop-color="#A7CAFF" stop-opacity="0"/>
</linearGradient>
<linearGradient id="paint4_linear_3_2387" x1="74.9999" y1="120.827" x2="74.9999" y2="31.1723" gradientUnits="userSpaceOnUse">
<stop stop-color="#181134"/>
<stop offset="1" stop-color="#222C5F"/>
</linearGradient>
<linearGradient id="paint5_linear_3_2387" x1="114.317" y1="30.7641" x2="38.6422" y2="121.236" gradientUnits="userSpaceOnUse">
<stop stop-color="#A7CAFF" stop-opacity="0.6"/>
<stop offset="1" stop-color="#A7CAFF" stop-opacity="0"/>
</linearGradient>
<clipPath id="clip0_3_2387">
<rect width="88.4" height="89.2667" fill="white" transform="translate(30.8 31.7999)"/>
</clipPath>
</defs>
</svg>
