<svg width="19" height="24" viewBox="0 0 19 24" fill="none" xmlns="http://www.w3.org/2000/svg">
<path d="M15.5357 8.77311V6.53311C15.5357 3.39711 13.0716 0.933105 9.93563 0.933105C6.79962 0.933105 4.3356 3.39711 4.3356 6.53311V8.77311C2.43159 8.77311 0.975586 10.2291 0.975586 12.1331V19.9731C0.975586 21.8771 2.43159 23.3331 4.3356 23.3331H15.5357C17.4397 23.3331 18.8957 21.8771 18.8957 19.9731V12.1331C18.8957 10.2291 17.4397 8.77311 15.5357 8.77311ZM6.57561 6.53311C6.57561 4.62911 8.03162 3.17311 9.93563 3.17311C11.8396 3.17311 13.2956 4.62911 13.2956 6.53311V8.77311H6.57561V6.53311ZM11.1676 16.0531L11.0556 16.1651V17.7331C11.0556 18.4051 10.6076 18.8531 9.93563 18.8531C9.26363 18.8531 8.81563 18.4051 8.81563 17.7331V16.1651C8.14362 15.4931 8.03162 14.4851 8.70363 13.8131C9.37563 13.1411 10.3836 13.0291 11.0556 13.7011C11.7276 14.2611 11.8396 15.3811 11.1676 16.0531Z" fill="#787878"/>
</svg>
