<svg width="160" height="160" viewBox="0 0 160 160" fill="none" xmlns="http://www.w3.org/2000/svg">
<g opacity="0.5">
<path d="M40.8 20.2665L40.8001 139.733" stroke="white" stroke-opacity="0.32" stroke-width="1.86667"/>
<path d="M44.5334 20.2665L44.5335 139.733" stroke="white" stroke-opacity="0.32" stroke-width="1.86667"/>
<path d="M48.2668 20.2665L48.2669 139.733" stroke="white" stroke-opacity="0.32" stroke-width="1.86667"/>
<path d="M52 20.2665L52 139.733" stroke="white" stroke-opacity="0.32" stroke-width="1.86667"/>
<path d="M55.7334 20.2665L55.7334 139.733" stroke="white" stroke-opacity="0.32" stroke-width="1.86667"/>
<path d="M59.4668 20.2665L59.4668 139.733" stroke="white" stroke-opacity="0.32" stroke-width="1.86667"/>
<path d="M63.2002 20.2665L63.2002 139.733" stroke="white" stroke-opacity="0.32" stroke-width="1.86667"/>
<path d="M66.9333 20.2665L66.9334 139.733" stroke="white" stroke-opacity="0.32" stroke-width="1.86667"/>
<path d="M70.6667 20.2665L70.6668 139.733" stroke="white" stroke-opacity="0.32" stroke-width="1.86667"/>
<path d="M74.4001 20.2665L74.4002 139.733" stroke="white" stroke-opacity="0.32" stroke-width="1.86667"/>
<path d="M78.1333 20.2665L78.1333 139.733" stroke="white" stroke-opacity="0.32" stroke-width="1.86667"/>
<path d="M81.8667 20.2665L81.8667 139.733" stroke="white" stroke-opacity="0.32" stroke-width="1.86667"/>
<path d="M85.6001 20.2665L85.6001 139.733" stroke="white" stroke-opacity="0.32" stroke-width="1.86667"/>
<path d="M89.3335 20.2665L89.3335 139.733" stroke="white" stroke-opacity="0.32" stroke-width="1.86667"/>
<path d="M93.0669 20.2665L93.0669 139.733" stroke="white" stroke-opacity="0.32" stroke-width="1.86667"/>
<path d="M96.8003 20.2665L96.8003 139.733" stroke="white" stroke-opacity="0.32" stroke-width="1.86667"/>
<path d="M100.533 20.2665L100.533 139.733" stroke="white" stroke-opacity="0.32" stroke-width="1.86667"/>
<path d="M104.267 20.2665L104.267 139.733" stroke="white" stroke-opacity="0.32" stroke-width="1.86667"/>
<path d="M108 20.2665L108 139.733" stroke="white" stroke-opacity="0.32" stroke-width="1.86667"/>
<path d="M111.733 20.2665L111.733 139.733" stroke="white" stroke-opacity="0.32" stroke-width="1.86667"/>
<path d="M115.467 20.2665L115.467 139.733" stroke="white" stroke-opacity="0.32" stroke-width="1.86667"/>
<path d="M119.2 20.2665L119.2 139.733" stroke="white" stroke-opacity="0.32" stroke-width="1.86667"/>
<path d="M40.8 16.5332L40.8001 143.467" stroke="white" stroke-opacity="0.32" stroke-width="0.933333"/>
<path d="M44.5334 16.5331L44.5335 143.466" stroke="white" stroke-opacity="0.32" stroke-width="0.933333"/>
<path d="M48.2668 16.5331L48.2669 143.466" stroke="white" stroke-opacity="0.32" stroke-width="0.933333"/>
<path d="M52 16.5331L52 143.466" stroke="white" stroke-opacity="0.32" stroke-width="0.933333"/>
<path d="M55.7334 16.5331L55.7334 143.466" stroke="white" stroke-opacity="0.32" stroke-width="0.933333"/>
<path d="M59.4668 16.5331L59.4668 143.466" stroke="white" stroke-opacity="0.32" stroke-width="0.933333"/>
<path d="M63.2002 16.5331L63.2002 143.466" stroke="white" stroke-opacity="0.32" stroke-width="0.933333"/>
<path d="M66.9333 16.5331L66.9334 143.466" stroke="white" stroke-opacity="0.32" stroke-width="0.933333"/>
<path d="M70.6667 16.5331L70.6668 143.466" stroke="white" stroke-opacity="0.32" stroke-width="0.933333"/>
<path d="M74.4001 16.5331L74.4002 143.466" stroke="white" stroke-opacity="0.32" stroke-width="0.933333"/>
<path d="M78.1333 16.5331L78.1333 143.466" stroke="white" stroke-opacity="0.32" stroke-width="0.933333"/>
<path d="M81.8667 16.5331L81.8667 143.466" stroke="white" stroke-opacity="0.32" stroke-width="0.933333"/>
<path d="M85.6001 16.5331L85.6001 143.466" stroke="white" stroke-opacity="0.32" stroke-width="0.933333"/>
<path d="M89.3335 16.5331L89.3335 143.466" stroke="white" stroke-opacity="0.32" stroke-width="0.933333"/>
<path d="M93.0669 16.5331L93.0669 143.466" stroke="white" stroke-opacity="0.32" stroke-width="0.933333"/>
<path d="M96.8003 16.5331L96.8003 143.466" stroke="white" stroke-opacity="0.32" stroke-width="0.933333"/>
<path d="M100.533 16.5331L100.533 143.466" stroke="white" stroke-opacity="0.32" stroke-width="0.933333"/>
<path d="M104.267 16.5331L104.267 143.466" stroke="white" stroke-opacity="0.32" stroke-width="0.933333"/>
<path d="M108 16.5331L108 143.466" stroke="white" stroke-opacity="0.32" stroke-width="0.933333"/>
<path d="M111.733 16.5331L111.733 143.466" stroke="white" stroke-opacity="0.32" stroke-width="0.933333"/>
<path d="M115.467 16.5331L115.467 143.466" stroke="white" stroke-opacity="0.32" stroke-width="0.933333"/>
<path d="M119.2 16.5331L119.2 143.466" stroke="white" stroke-opacity="0.32" stroke-width="0.933333"/>
<path d="M143.467 40.7999L16.5335 40.7999" stroke="white" stroke-opacity="0.32" stroke-width="0.933333"/>
<path d="M143.467 44.5332L16.5335 44.5332" stroke="white" stroke-opacity="0.32" stroke-width="0.933333"/>
<path d="M143.467 48.2665L16.5335 48.2665" stroke="white" stroke-opacity="0.32" stroke-width="0.933333"/>
<path d="M143.467 51.9999L16.5335 51.9999" stroke="white" stroke-opacity="0.32" stroke-width="0.933333"/>
<path d="M143.467 55.7332L16.5335 55.7332" stroke="white" stroke-opacity="0.32" stroke-width="0.933333"/>
<path d="M143.467 59.4666L16.5335 59.4666" stroke="white" stroke-opacity="0.32" stroke-width="0.933333"/>
<path d="M143.467 63.1999L16.5335 63.1999" stroke="white" stroke-opacity="0.32" stroke-width="0.933333"/>
<path d="M143.467 66.9332L16.5335 66.9332" stroke="white" stroke-opacity="0.32" stroke-width="0.933333"/>
<path d="M143.467 70.6666L16.5335 70.6666" stroke="white" stroke-opacity="0.32" stroke-width="0.933333"/>
<path d="M143.467 74.3999L16.5335 74.3999" stroke="white" stroke-opacity="0.32" stroke-width="0.933333"/>
<path d="M143.467 78.1332L16.5335 78.1332" stroke="white" stroke-opacity="0.32" stroke-width="0.933333"/>
<path d="M143.467 81.8666L16.5335 81.8666" stroke="white" stroke-opacity="0.32" stroke-width="0.933333"/>
<path d="M143.467 85.5999L16.5335 85.5999" stroke="white" stroke-opacity="0.32" stroke-width="0.933333"/>
<path d="M143.467 89.3332L16.5335 89.3332" stroke="white" stroke-opacity="0.32" stroke-width="0.933333"/>
<path d="M143.467 93.0665L16.5335 93.0665" stroke="white" stroke-opacity="0.32" stroke-width="0.933333"/>
<path d="M143.467 96.7999L16.5335 96.7999" stroke="white" stroke-opacity="0.32" stroke-width="0.933333"/>
<path d="M143.467 100.533L16.5335 100.533" stroke="white" stroke-opacity="0.32" stroke-width="0.933333"/>
<path d="M143.467 104.267L16.5335 104.267" stroke="white" stroke-opacity="0.32" stroke-width="0.933333"/>
<path d="M143.467 108L16.5335 108" stroke="white" stroke-opacity="0.32" stroke-width="0.933333"/>
<path d="M143.467 111.733L16.5335 111.733" stroke="white" stroke-opacity="0.32" stroke-width="0.933333"/>
<path d="M143.467 115.467L16.5335 115.467" stroke="white" stroke-opacity="0.32" stroke-width="0.933333"/>
<path d="M143.467 119.2L16.5335 119.2" stroke="white" stroke-opacity="0.32" stroke-width="0.933333"/>
<path d="M139.733 40.7999L20.2667 40.7999" stroke="white" stroke-opacity="0.32" stroke-width="1.86667"/>
<path d="M139.733 44.5332L20.2667 44.5332" stroke="white" stroke-opacity="0.32" stroke-width="1.86667"/>
<path d="M139.733 48.2665L20.2667 48.2665" stroke="white" stroke-opacity="0.32" stroke-width="1.86667"/>
<path d="M139.733 51.9999L20.2667 51.9999" stroke="white" stroke-opacity="0.32" stroke-width="1.86667"/>
<path d="M139.733 55.7332L20.2667 55.7332" stroke="white" stroke-opacity="0.32" stroke-width="1.86667"/>
<path d="M139.733 59.4666L20.2667 59.4666" stroke="white" stroke-opacity="0.32" stroke-width="1.86667"/>
<path d="M139.733 63.1999L20.2667 63.1999" stroke="white" stroke-opacity="0.32" stroke-width="1.86667"/>
<path d="M139.733 66.9332L20.2667 66.9332" stroke="white" stroke-opacity="0.32" stroke-width="1.86667"/>
<path d="M139.733 70.6666L20.2667 70.6666" stroke="white" stroke-opacity="0.32" stroke-width="1.86667"/>
<path d="M139.733 74.3999L20.2667 74.3999" stroke="white" stroke-opacity="0.32" stroke-width="1.86667"/>
<path d="M139.733 78.1332L20.2667 78.1332" stroke="white" stroke-opacity="0.32" stroke-width="1.86667"/>
<path d="M139.733 81.8666L20.2667 81.8666" stroke="white" stroke-opacity="0.32" stroke-width="1.86667"/>
<path d="M139.733 85.5999L20.2667 85.5999" stroke="white" stroke-opacity="0.32" stroke-width="1.86667"/>
<path d="M139.733 89.3332L20.2667 89.3332" stroke="white" stroke-opacity="0.32" stroke-width="1.86667"/>
<path d="M139.733 93.0665L20.2667 93.0665" stroke="white" stroke-opacity="0.32" stroke-width="1.86667"/>
<path d="M139.733 96.7999L20.2667 96.7999" stroke="white" stroke-opacity="0.32" stroke-width="1.86667"/>
<path d="M139.733 100.533L20.2667 100.533" stroke="white" stroke-opacity="0.32" stroke-width="1.86667"/>
<path d="M139.733 104.267L20.2667 104.267" stroke="white" stroke-opacity="0.32" stroke-width="1.86667"/>
<path d="M139.733 108L20.2667 108" stroke="white" stroke-opacity="0.32" stroke-width="1.86667"/>
<path d="M139.733 111.733L20.2667 111.733" stroke="white" stroke-opacity="0.32" stroke-width="1.86667"/>
<path d="M139.733 115.467L20.2667 115.467" stroke="white" stroke-opacity="0.32" stroke-width="1.86667"/>
<path d="M139.733 119.2L20.2667 119.2" stroke="white" stroke-opacity="0.32" stroke-width="1.86667"/>
<mask id="path-89-inside-1_13_11484" fill="white">
<path fill-rule="evenodd" clip-rule="evenodd" d="M36.4193 24.2827C36.6003 24.1016 36.8459 23.9999 37.102 23.9999H123.109C123.366 23.9999 123.611 24.1016 123.792 24.2827L135.717 36.2077C135.898 36.3888 136 36.6343 136 36.8904V123.322C136 123.578 135.898 123.823 135.717 124.004L124.005 135.717C123.823 135.898 123.578 136 123.322 136H36.8908C36.6347 136 36.3891 135.898 36.2081 135.717L24.2828 123.792C24.1017 123.611 24 123.365 24 123.109V37.1019C24 36.8458 24.1017 36.6002 24.2828 36.4192L36.4193 24.2827Z"/>
</mask>
<path fill-rule="evenodd" clip-rule="evenodd" d="M36.4193 24.2827C36.6003 24.1016 36.8459 23.9999 37.102 23.9999H123.109C123.366 23.9999 123.611 24.1016 123.792 24.2827L135.717 36.2077C135.898 36.3888 136 36.6343 136 36.8904V123.322C136 123.578 135.898 123.823 135.717 124.004L124.005 135.717C123.823 135.898 123.578 136 123.322 136H36.8908C36.6347 136 36.3891 135.898 36.2081 135.717L24.2828 123.792C24.1017 123.611 24 123.365 24 123.109V37.1019C24 36.8458 24.1017 36.6002 24.2828 36.4192L36.4193 24.2827Z" fill="url(#paint0_linear_13_11484)"/>
<path d="M24.2828 123.792L24.9267 123.148L24.2828 123.792ZM36.2081 135.717L36.8519 135.073L36.2081 135.717ZM135.717 36.2077L136.361 35.5638L135.717 36.2077ZM36.4193 24.2827L37.0631 24.9265L36.4193 24.2827ZM123.792 24.2827L123.148 24.9265L123.792 24.2827ZM123.109 23.0893H37.102V24.9104H123.109V23.0893ZM136.361 35.5638L124.436 23.6388L123.148 24.9265L135.073 36.8516L136.361 35.5638ZM136.911 123.322V36.8904H135.089V123.322H136.911ZM124.648 136.361L136.361 124.648L135.073 123.361L123.361 135.073L124.648 136.361ZM36.8908 136.91H123.322V135.089H36.8908V136.91ZM23.6389 124.436L35.5642 136.361L36.8519 135.073L24.9267 123.148L23.6389 124.436ZM23.0894 37.1019V123.109H24.9106V37.1019H23.0894ZM35.7754 23.6388L23.6389 35.7753L24.9267 37.063L37.0631 24.9265L35.7754 23.6388ZM24.9106 37.1019C24.9106 37.0873 24.9164 37.0733 24.9267 37.063L23.6389 35.7753C23.2871 36.1271 23.0894 36.6043 23.0894 37.1019H24.9106ZM24.9267 123.148C24.9164 123.138 24.9106 123.124 24.9106 123.109H23.0894C23.0894 123.607 23.2871 124.084 23.6389 124.436L24.9267 123.148ZM36.8908 135.089C36.8762 135.089 36.8622 135.084 36.8519 135.073L35.5642 136.361C35.916 136.713 36.3932 136.91 36.8908 136.91V135.089ZM123.361 135.073C123.35 135.084 123.336 135.089 123.322 135.089V136.91C123.819 136.91 124.297 136.713 124.648 136.361L123.361 135.073ZM135.089 123.322C135.089 123.336 135.084 123.35 135.073 123.361L136.361 124.648C136.713 124.296 136.911 123.819 136.911 123.322H135.089ZM135.073 36.8516C135.084 36.8619 135.089 36.8758 135.089 36.8904H136.911C136.911 36.3929 136.713 35.9157 136.361 35.5638L135.073 36.8516ZM37.102 23.0893C36.6044 23.0893 36.1272 23.287 35.7754 23.6388L37.0631 24.9265C37.0734 24.9162 37.0874 24.9104 37.102 24.9104V23.0893ZM123.109 24.9104C123.124 24.9104 123.138 24.9162 123.148 24.9265L124.436 23.6388C124.084 23.287 123.607 23.0893 123.109 23.0893V24.9104Z" fill="url(#paint1_linear_13_11484)" fill-opacity="0.12" mask="url(#path-89-inside-1_13_11484)"/>
<g filter="url(#filter0_f_13_11484)">
<path d="M32.0069 119.455L32.4621 119L32.0069 119.455ZM40.5445 127.993L40.0893 128.448L40.0893 128.448L40.5445 127.993ZM127.993 40.5439L128.448 40.0888L127.993 40.5439ZM119.456 32.0067L119.001 32.4619L119.456 32.0067ZM118.773 31.0803H41.41V32.3676H118.773V31.0803ZM128.448 40.0888L119.911 31.5516L119.001 32.4619L127.538 40.9991L128.448 40.0888ZM128.92 118.956V41.2267H127.632V118.956H128.92ZM120.094 128.448L128.448 120.094L127.538 119.183L119.184 127.538L120.094 128.448ZM41.2272 128.919H118.956V127.632H41.2272V128.919ZM31.5518 119.91L40.0893 128.448L40.9996 127.538L32.4621 119L31.5518 119.91ZM31.0804 41.4099V118.773H32.3678V41.4099H31.0804ZM40.2722 31.5516L31.5518 40.272L32.4621 41.1823L41.1825 32.4619L40.2722 31.5516ZM32.3678 41.4099C32.3678 41.3245 32.4017 41.2426 32.4621 41.1823L31.5518 40.272C31.25 40.5738 31.0804 40.9831 31.0804 41.4099H32.3678ZM32.4621 119C32.4017 118.94 32.3678 118.858 32.3678 118.773H31.0804C31.0804 119.199 31.25 119.609 31.5518 119.91L32.4621 119ZM41.2272 127.632C41.1418 127.632 41.06 127.598 40.9996 127.538L40.0893 128.448C40.3911 128.75 40.8004 128.919 41.2272 128.919V127.632ZM119.184 127.538C119.123 127.598 119.041 127.632 118.956 127.632V128.919C119.383 128.919 119.792 128.75 120.094 128.448L119.184 127.538ZM127.632 118.956C127.632 119.041 127.598 119.123 127.538 119.183L128.448 120.094C128.75 119.792 128.92 119.383 128.92 118.956H127.632ZM127.538 40.9991C127.598 41.0594 127.632 41.1413 127.632 41.2267H128.92C128.92 40.7999 128.75 40.3906 128.448 40.0888L127.538 40.9991ZM41.41 31.0803C40.9833 31.0803 40.5739 31.2498 40.2722 31.5516L41.1825 32.4619C41.2428 32.4015 41.3247 32.3676 41.41 32.3676V31.0803ZM118.773 32.3676C118.858 32.3676 118.94 32.4015 119.001 32.4619L119.911 31.5516C119.609 31.2498 119.2 31.0803 118.773 31.0803V32.3676Z" fill="#02AACF"/>
</g>
<path fill-rule="evenodd" clip-rule="evenodd" d="M38.3875 29.1102C38.5686 28.9291 38.8142 28.8274 39.0703 28.8274H121.123C121.379 28.8274 121.625 28.9291 121.806 29.1102L130.89 38.1942C131.071 38.3752 131.172 38.6208 131.172 38.8769V121.317C131.172 121.573 131.071 121.819 130.89 122L122 130.889C121.819 131.07 121.574 131.172 121.317 131.172H38.8766C38.6205 131.172 38.3749 131.07 38.1938 130.889L29.1104 121.806C28.9294 121.625 28.8276 121.379 28.8276 121.123V39.07C28.8276 38.8139 28.9294 38.5684 29.1104 38.3873L38.3875 29.1102Z" fill="url(#paint2_linear_13_11484)"/>
<mask id="mask0_13_11484" style="mask-type:alpha" maskUnits="userSpaceOnUse" x="30" y="27" width="123" height="127">
<path fill-rule="evenodd" clip-rule="evenodd" d="M126.894 27.6421H152.39V135.089L143.285 135.089L137.821 135.089V153.301L30.374 153.301L30.374 127.805L117.789 127.805V119.61H126.894V27.6421Z" fill="black"/>
</mask>
<g mask="url(#mask0_13_11484)">
<path fill-rule="evenodd" clip-rule="evenodd" d="M38.3875 29.1102C38.5686 28.9292 38.8142 28.8275 39.0703 28.8275H121.123C121.379 28.8275 121.625 28.9292 121.806 29.1102L130.89 38.1942C131.071 38.3753 131.172 38.6209 131.172 38.877V121.317C131.172 121.573 131.071 121.819 130.89 122L122 130.889C121.819 131.071 121.574 131.172 121.317 131.172H38.8766C38.6205 131.172 38.3749 131.071 38.1938 130.889L29.1104 121.806C28.9294 121.625 28.8276 121.379 28.8276 121.123V39.0701C28.8276 38.814 28.9294 38.5684 29.1104 38.3874L38.3875 29.1102Z" fill="black" fill-opacity="0.3"/>
</g>
<mask id="mask1_13_11484" style="mask-type:alpha" maskUnits="userSpaceOnUse" x="28" y="27" width="104" height="14">
<rect x="28.5527" y="27.6421" width="102.894" height="12.748" fill="#4355B7"/>
</mask>
<g mask="url(#mask1_13_11484)">
<path fill-rule="evenodd" clip-rule="evenodd" d="M38.3875 29.1104C38.5686 28.9293 38.8142 28.8276 39.0702 28.8276H121.123C121.379 28.8276 121.625 28.9293 121.806 29.1104L130.89 38.1943C131.071 38.3754 131.172 38.621 131.172 38.8771V121.317C131.172 121.574 131.071 121.819 130.89 122L122 130.89C121.819 131.071 121.574 131.172 121.318 131.172H38.8767C38.6206 131.172 38.375 131.071 38.194 130.89L29.1104 121.806C28.9294 121.625 28.8276 121.379 28.8276 121.123V39.0702C28.8276 38.8141 28.9294 38.5685 29.1104 38.3875L38.3875 29.1104Z" fill="#4355B7"/>
</g>
<mask id="path-97-inside-2_13_11484" fill="white">
<path fill-rule="evenodd" clip-rule="evenodd" d="M40.727 32.0067C40.9081 31.8257 41.1537 31.7239 41.4098 31.7239H118.773C119.029 31.7239 119.275 31.8257 119.456 32.0067L127.993 40.544C128.174 40.7251 128.276 40.9707 128.276 41.2267V118.955C128.276 119.211 128.174 119.457 127.993 119.638L119.638 127.993C119.457 128.174 119.212 128.276 118.956 128.276H41.2273C40.9713 128.276 40.7257 128.174 40.5446 127.993L32.0069 119.455C31.8258 119.274 31.7241 119.029 31.7241 118.772V41.4096C31.7241 41.1535 31.8258 40.9079 32.0069 40.7269L40.727 32.0067Z"/>
</mask>
<path fill-rule="evenodd" clip-rule="evenodd" d="M40.727 32.0067C40.9081 31.8257 41.1537 31.7239 41.4098 31.7239H118.773C119.029 31.7239 119.275 31.8257 119.456 32.0067L127.993 40.544C128.174 40.7251 128.276 40.9707 128.276 41.2267V118.955C128.276 119.211 128.174 119.457 127.993 119.638L119.638 127.993C119.457 128.174 119.212 128.276 118.956 128.276H41.2273C40.9713 128.276 40.7257 128.174 40.5446 127.993L32.0069 119.455C31.8258 119.274 31.7241 119.029 31.7241 118.772V41.4096C31.7241 41.1535 31.8258 40.9079 32.0069 40.7269L40.727 32.0067Z" fill="url(#paint3_linear_13_11484)"/>
<path d="M32.0069 119.455L32.3288 119.133L32.0069 119.455ZM40.5446 127.993L40.2227 128.315L40.5446 127.993ZM119.638 127.993L119.96 128.315L119.638 127.993ZM127.993 119.638L128.315 119.96L127.993 119.638ZM127.993 40.544L128.315 40.2221L127.993 40.544ZM119.456 32.0067L119.134 32.3287L119.456 32.0067ZM118.773 31.2687H41.4098V32.1792H118.773V31.2687ZM128.315 40.2221L119.778 31.6848L119.134 32.3287L127.671 40.8659L128.315 40.2221ZM128.731 118.955V41.2267H127.821V118.955H128.731ZM119.96 128.315L128.315 119.96L127.671 119.316L119.316 127.671L119.96 128.315ZM41.2273 128.731H118.956V127.82H41.2273V128.731ZM31.685 119.777L40.2227 128.315L40.8666 127.671L32.3288 119.133L31.685 119.777ZM31.2688 41.4096V118.772H32.1794V41.4096H31.2688ZM40.4051 31.6848L31.685 40.4049L32.3288 41.0488L41.049 32.3287L40.4051 31.6848ZM32.1794 41.4096C32.1794 41.2743 32.2332 41.1445 32.3288 41.0488L31.685 40.4049C31.4185 40.6714 31.2688 41.0328 31.2688 41.4096H32.1794ZM32.3288 119.133C32.2332 119.038 32.1794 118.908 32.1794 118.772H31.2688C31.2688 119.149 31.4185 119.511 31.685 119.777L32.3288 119.133ZM41.2273 127.82C41.092 127.82 40.9622 127.767 40.8666 127.671L40.2227 128.315C40.4891 128.581 40.8505 128.731 41.2273 128.731V127.82ZM119.316 127.671C119.221 127.767 119.091 127.82 118.956 127.82V128.731C119.332 128.731 119.694 128.581 119.96 128.315L119.316 127.671ZM127.821 118.955C127.821 119.091 127.767 119.221 127.671 119.316L128.315 119.96C128.581 119.694 128.731 119.332 128.731 118.955H127.821ZM127.671 40.8659C127.767 40.9616 127.821 41.0914 127.821 41.2267H128.731C128.731 40.8499 128.581 40.4885 128.315 40.2221L127.671 40.8659ZM41.4098 31.2687C41.033 31.2687 40.6716 31.4183 40.4051 31.6848L41.049 32.3287C41.1447 32.233 41.2745 32.1792 41.4098 32.1792V31.2687ZM118.773 32.1792C118.908 32.1792 119.038 32.233 119.134 32.3287L119.778 31.6848C119.511 31.4183 119.15 31.2687 118.773 31.2687V32.1792Z" fill="url(#paint4_linear_13_11484)" mask="url(#path-97-inside-2_13_11484)"/>
<g clip-path="url(#clip0_13_11484)">
<mask id="mask2_13_11484" style="mask-type:alpha" maskUnits="userSpaceOnUse" x="32" y="32" width="97" height="97">
<mask id="path-99-inside-3_13_11484" fill="white">
<path fill-rule="evenodd" clip-rule="evenodd" d="M41.0029 32.2828C41.184 32.1017 41.4296 32 41.6857 32H119.049C119.305 32 119.551 32.1017 119.732 32.2828L128.269 40.8201C128.45 41.0011 128.552 41.2467 128.552 41.5028V119.231C128.552 119.488 128.45 119.733 128.269 119.914L119.914 128.269C119.733 128.45 119.488 128.552 119.231 128.552H41.5032C41.2471 128.552 41.0016 128.45 40.8205 128.269L32.2828 119.731C32.1017 119.55 32 119.305 32 119.049V41.6857C32 41.4296 32.1017 41.184 32.2828 41.0029L41.0029 32.2828Z"/>
</mask>
<path fill-rule="evenodd" clip-rule="evenodd" d="M41.0029 32.2828C41.184 32.1017 41.4296 32 41.6857 32H119.049C119.305 32 119.551 32.1017 119.732 32.2828L128.269 40.8201C128.45 41.0011 128.552 41.2467 128.552 41.5028V119.231C128.552 119.488 128.45 119.733 128.269 119.914L119.914 128.269C119.733 128.45 119.488 128.552 119.231 128.552H41.5032C41.2471 128.552 41.0016 128.45 40.8205 128.269L32.2828 119.731C32.1017 119.55 32 119.305 32 119.049V41.6857C32 41.4296 32.1017 41.184 32.2828 41.0029L41.0029 32.2828Z" fill="url(#paint5_linear_13_11484)"/>
<path d="M32.2828 119.731L32.6047 119.409L32.2828 119.731ZM40.8205 128.269L40.4986 128.591L40.8205 128.269ZM119.914 128.269L120.236 128.591L119.914 128.269ZM128.269 119.914L128.591 120.236L128.269 119.914ZM128.269 40.8201L128.591 40.4981L128.269 40.8201ZM119.732 32.2828L119.41 32.6047L119.732 32.2828ZM119.049 31.5447H41.6857V32.4553H119.049V31.5447ZM128.591 40.4981L120.054 31.9609L119.41 32.6047L127.947 41.142L128.591 40.4981ZM129.007 119.231V41.5028H128.096V119.231H129.007ZM120.236 128.591L128.591 120.236L127.947 119.592L119.592 127.947L120.236 128.591ZM41.5032 129.007H119.231V128.096H41.5032V129.007ZM31.9609 120.053L40.4986 128.591L41.1424 127.947L32.6047 119.409L31.9609 120.053ZM31.5447 41.6857V119.049H32.4553V41.6857H31.5447ZM40.681 31.9609L31.9609 40.681L32.6047 41.3249L41.3249 32.6047L40.681 31.9609ZM32.4553 41.6857C32.4553 41.5503 32.509 41.4205 32.6047 41.3249L31.9609 40.681C31.6944 40.9474 31.5447 41.3088 31.5447 41.6857H32.4553ZM32.6047 119.409C32.509 119.314 32.4553 119.184 32.4553 119.049H31.5447C31.5447 119.425 31.6944 119.787 31.9609 120.053L32.6047 119.409ZM41.5032 128.096C41.3679 128.096 41.2381 128.043 41.1424 127.947L40.4986 128.591C40.765 128.857 41.1264 129.007 41.5032 129.007V128.096ZM119.592 127.947C119.497 128.043 119.367 128.096 119.231 128.096V129.007C119.608 129.007 119.97 128.857 120.236 128.591L119.592 127.947ZM128.096 119.231C128.096 119.367 128.043 119.497 127.947 119.592L128.591 120.236C128.857 119.97 129.007 119.608 129.007 119.231H128.096ZM127.947 41.142C128.043 41.2377 128.096 41.3675 128.096 41.5028H129.007C129.007 41.126 128.857 40.7646 128.591 40.4981L127.947 41.142ZM41.6857 31.5447C41.3088 31.5447 40.9474 31.6944 40.681 31.9609L41.3249 32.6047C41.4205 32.509 41.5503 32.4553 41.6857 32.4553V31.5447ZM119.049 32.4553C119.184 32.4553 119.314 32.509 119.41 32.6047L120.054 31.9609C119.787 31.6944 119.426 31.5447 119.049 31.5447V32.4553Z" fill="url(#paint6_linear_13_11484)" mask="url(#path-99-inside-3_13_11484)"/>
</mask>
<g mask="url(#mask2_13_11484)">
<g filter="url(#filter1_f_13_11484)">
<rect x="32.4001" y="93.9999" width="95.2" height="61.6" rx="30.8" fill="#7969BA" fill-opacity="0.24"/>
</g>
</g>
</g>
<mask id="path-102-inside-4_13_11484" fill="white">
<path fill-rule="evenodd" clip-rule="evenodd" d="M38.3875 29.1102C38.5686 28.9291 38.8142 28.8274 39.0703 28.8274H121.123C121.379 28.8274 121.625 28.9291 121.806 29.1102L130.89 38.1942C131.071 38.3752 131.172 38.6208 131.172 38.8769V121.317C131.172 121.573 131.071 121.819 130.89 122L122 130.889C121.819 131.07 121.574 131.172 121.317 131.172H38.8766C38.6205 131.172 38.3749 131.07 38.1938 130.889L29.1104 121.806C28.9294 121.625 28.8276 121.379 28.8276 121.123V39.07C28.8276 38.8139 28.9294 38.5684 29.1104 38.3873L38.3875 29.1102Z"/>
</mask>
<path d="M29.1104 121.806L28.7804 122.136L29.1104 121.806ZM38.1938 130.889L38.5238 130.559L38.1938 130.889ZM130.89 38.1942L130.56 38.5242L130.89 38.1942ZM121.806 29.1102L122.136 28.7802L121.806 29.1102ZM121.123 28.3607H39.0703V29.2941H121.123V28.3607ZM131.22 37.8642L122.136 28.7802L121.476 29.4402L130.56 38.5242L131.22 37.8642ZM131.639 121.317V38.8769H130.706V121.317H131.639ZM122.33 131.219L131.22 122.33L130.56 121.67L121.67 130.559L122.33 131.219ZM38.8766 131.639H121.317V130.706H38.8766V131.639ZM28.7804 122.136L37.8639 131.219L38.5238 130.559L29.4404 121.476L28.7804 122.136ZM28.361 39.07V121.123H29.2943V39.07H28.361ZM38.0576 28.7802L28.7804 38.0573L29.4404 38.7173L38.7175 29.4402L38.0576 28.7802ZM29.2943 39.07C29.2943 38.9377 29.3469 38.8108 29.4404 38.7173L28.7804 38.0573C28.5119 38.3259 28.361 38.6902 28.361 39.07H29.2943ZM29.4404 121.476C29.3469 121.382 29.2943 121.256 29.2943 121.123H28.361C28.361 121.503 28.5119 121.867 28.7804 122.136L29.4404 121.476ZM38.8766 130.706C38.7443 130.706 38.6174 130.653 38.5238 130.559L37.8639 131.219C38.1325 131.488 38.4967 131.639 38.8766 131.639V130.706ZM121.67 130.559C121.577 130.653 121.45 130.706 121.317 130.706V131.639C121.697 131.639 122.062 131.488 122.33 131.219L121.67 130.559ZM130.706 121.317C130.706 121.449 130.653 121.576 130.56 121.67L131.22 122.33C131.488 122.061 131.639 121.697 131.639 121.317H130.706ZM130.56 38.5242C130.653 38.6177 130.706 38.7446 130.706 38.8769H131.639C131.639 38.4971 131.488 38.1328 131.22 37.8642L130.56 38.5242ZM39.0703 28.3607C38.6904 28.3607 38.3261 28.5116 38.0576 28.7802L38.7175 29.4402C38.8111 29.3466 38.938 29.2941 39.0703 29.2941V28.3607ZM121.123 29.2941C121.255 29.2941 121.382 29.3466 121.476 29.4402L122.136 28.7802C121.867 28.5116 121.503 28.3607 121.123 28.3607V29.2941Z" fill="url(#paint7_linear_13_11484)" mask="url(#path-102-inside-4_13_11484)"/>
</g>
<defs>
<filter id="filter0_f_13_11484" x="25.9309" y="25.9308" width="108.138" height="108.138" filterUnits="userSpaceOnUse" color-interpolation-filters="sRGB">
<feFlood flood-opacity="0" result="BackgroundImageFix"/>
<feBlend mode="normal" in="SourceGraphic" in2="BackgroundImageFix" result="shape"/>
<feGaussianBlur stdDeviation="2.57471" result="effect1_foregroundBlur_13_11484"/>
</filter>
<filter id="filter1_f_13_11484" x="-4.93319" y="56.6666" width="169.867" height="136.267" filterUnits="userSpaceOnUse" color-interpolation-filters="sRGB">
<feFlood flood-opacity="0" result="BackgroundImageFix"/>
<feBlend mode="normal" in="SourceGraphic" in2="BackgroundImageFix" result="shape"/>
<feGaussianBlur stdDeviation="18.6667" result="effect1_foregroundBlur_13_11484"/>
</filter>
<linearGradient id="paint0_linear_13_11484" x1="80" y1="136" x2="80" y2="23.9999" gradientUnits="userSpaceOnUse">
<stop stop-color="#181134"/>
<stop offset="1" stop-color="#222C5F"/>
</linearGradient>
<linearGradient id="paint1_linear_13_11484" x1="129.593" y1="23.9999" x2="74.5424" y2="147.627" gradientUnits="userSpaceOnUse">
<stop stop-color="white"/>
<stop offset="1" stop-color="white" stop-opacity="0"/>
</linearGradient>
<linearGradient id="paint2_linear_13_11484" x1="80.0001" y1="131.172" x2="80" y2="28.8274" gradientUnits="userSpaceOnUse">
<stop stop-color="#181134"/>
<stop offset="1" stop-color="#222C5F"/>
</linearGradient>
<linearGradient id="paint3_linear_13_11484" x1="80" y1="128.276" x2="80" y2="31.7239" gradientUnits="userSpaceOnUse">
<stop stop-color="#181134"/>
<stop offset="1" stop-color="#222C5F"/>
</linearGradient>
<linearGradient id="paint4_linear_13_11484" x1="122.342" y1="31.2843" x2="40.8456" y2="128.715" gradientUnits="userSpaceOnUse">
<stop stop-color="#A7CAFF" stop-opacity="0.6"/>
<stop offset="1" stop-color="#A7CAFF" stop-opacity="0"/>
</linearGradient>
<linearGradient id="paint5_linear_13_11484" x1="80.2759" y1="128.552" x2="80.2759" y2="32" gradientUnits="userSpaceOnUse">
<stop stop-color="#181134"/>
<stop offset="1" stop-color="#222C5F"/>
</linearGradient>
<linearGradient id="paint6_linear_13_11484" x1="122.617" y1="31.5604" x2="41.1215" y2="128.991" gradientUnits="userSpaceOnUse">
<stop stop-color="#A7CAFF" stop-opacity="0.6"/>
<stop offset="1" stop-color="#A7CAFF" stop-opacity="0"/>
</linearGradient>
<linearGradient id="paint7_linear_13_11484" x1="131.333" y1="28.6665" x2="80" y2="131.172" gradientUnits="userSpaceOnUse">
<stop stop-color="white" stop-opacity="0.32"/>
<stop offset="1" stop-color="white" stop-opacity="0"/>
</linearGradient>
<clipPath id="clip0_13_11484">
<rect width="95.2" height="96.1333" fill="white" transform="translate(32.4001 32.3999)"/>
</clipPath>
</defs>
</svg>
