<svg width="160" height="160" viewBox="0 0 160 160" fill="none" xmlns="http://www.w3.org/2000/svg">
<g clip-path="url(#clip0_192_11111)">
<mask id="mask0_192_11111" style="mask-type:alpha" maskUnits="userSpaceOnUse" x="31" y="31" width="98" height="98">
<mask id="path-1-inside-1_192_11111" fill="white">
<path fill-rule="evenodd" clip-rule="evenodd" d="M40.7271 32.0068C40.9081 31.8257 41.1537 31.724 41.4098 31.724H118.773C119.029 31.724 119.275 31.8257 119.456 32.0068L127.993 40.5441C128.174 40.7252 128.276 40.9708 128.276 41.2268V118.956C128.276 119.212 128.174 119.457 127.993 119.638L119.638 127.993C119.457 128.174 119.212 128.276 118.956 128.276H41.2273C40.9712 128.276 40.7257 128.174 40.5446 127.993L32.0069 119.455C31.8258 119.274 31.7241 119.029 31.7241 118.773V41.4097C31.7241 41.1536 31.8258 40.908 32.0069 40.727L40.7271 32.0068Z"/>
</mask>
<path fill-rule="evenodd" clip-rule="evenodd" d="M40.7271 32.0068C40.9081 31.8257 41.1537 31.724 41.4098 31.724H118.773C119.029 31.724 119.275 31.8257 119.456 32.0068L127.993 40.5441C128.174 40.7252 128.276 40.9708 128.276 41.2268V118.956C128.276 119.212 128.174 119.457 127.993 119.638L119.638 127.993C119.457 128.174 119.212 128.276 118.956 128.276H41.2273C40.9712 128.276 40.7257 128.174 40.5446 127.993L32.0069 119.455C31.8258 119.274 31.7241 119.029 31.7241 118.773V41.4097C31.7241 41.1536 31.8258 40.908 32.0069 40.727L40.7271 32.0068Z" fill="url(#paint0_linear_192_11111)"/>
<path d="M32.0069 40.727L32.3288 41.0489L32.0069 40.727ZM32.0069 119.455L32.3288 119.133L32.0069 119.455ZM40.5446 127.993L40.8665 127.671L40.5446 127.993ZM127.993 40.5441L127.671 40.866L127.993 40.5441ZM119.456 32.0068L119.778 31.6849L119.456 32.0068ZM118.773 31.2687H41.4098V32.1793H118.773V31.2687ZM128.315 40.2222L119.778 31.6849L119.134 32.3287L127.671 40.866L128.315 40.2222ZM128.731 118.956V41.2268H127.821V118.956H128.731ZM119.96 128.315L128.315 119.96L127.671 119.316L119.316 127.671L119.96 128.315ZM41.2273 128.731H118.956V127.82H41.2273V128.731ZM31.685 119.777L40.2227 128.315L40.8665 127.671L32.3288 119.133L31.685 119.777ZM31.2688 41.4097V118.773H32.1794V41.4097H31.2688ZM40.4051 31.6849L31.685 40.405L32.3288 41.0489L41.049 32.3287L40.4051 31.6849ZM32.1794 41.4097C32.1794 41.2744 32.2332 41.1446 32.3288 41.0489L31.685 40.405C31.4185 40.6715 31.2688 41.0329 31.2688 41.4097H32.1794ZM32.3288 119.133C32.2332 119.038 32.1794 118.908 32.1794 118.773H31.2688C31.2688 119.149 31.4185 119.511 31.685 119.777L32.3288 119.133ZM41.2273 127.82C41.092 127.82 40.9622 127.767 40.8665 127.671L40.2227 128.315C40.4891 128.581 40.8505 128.731 41.2273 128.731V127.82ZM119.316 127.671C119.221 127.767 119.091 127.82 118.956 127.82V128.731C119.332 128.731 119.694 128.581 119.96 128.315L119.316 127.671ZM127.821 118.956C127.821 119.091 127.767 119.221 127.671 119.316L128.315 119.96C128.581 119.694 128.731 119.332 128.731 118.956H127.821ZM127.671 40.866C127.767 40.9617 127.821 41.0915 127.821 41.2268H128.731C128.731 40.85 128.581 40.4886 128.315 40.2222L127.671 40.866ZM41.4098 31.2687C41.033 31.2687 40.6716 31.4184 40.4051 31.6849L41.049 32.3287C41.1447 32.233 41.2745 32.1793 41.4098 32.1793V31.2687ZM118.773 32.1793C118.908 32.1793 119.038 32.233 119.134 32.3287L119.778 31.6849C119.511 31.4184 119.15 31.2687 118.773 31.2687V32.1793Z" fill="url(#paint1_linear_192_11111)" mask="url(#path-1-inside-1_192_11111)"/>
</mask>
<g mask="url(#mask0_192_11111)">
<g filter="url(#filter0_f_192_11111)">
<rect x="32.4001" y="94" width="95.2" height="61.6" rx="30.8" fill="#25FF01" fill-opacity="0.24"/>
</g>
</g>
</g>
<defs>
<filter id="filter0_f_192_11111" x="-4.93319" y="56.6667" width="169.867" height="136.267" filterUnits="userSpaceOnUse" color-interpolation-filters="sRGB">
<feFlood flood-opacity="0" result="BackgroundImageFix"/>
<feBlend mode="normal" in="SourceGraphic" in2="BackgroundImageFix" result="shape"/>
<feGaussianBlur stdDeviation="18.6667" result="effect1_foregroundBlur_192_11111"/>
</filter>
<linearGradient id="paint0_linear_192_11111" x1="80" y1="128.276" x2="80" y2="31.724" gradientUnits="userSpaceOnUse">
<stop stop-color="#181134"/>
<stop offset="1" stop-color="#222C5F"/>
</linearGradient>
<linearGradient id="paint1_linear_192_11111" x1="122.342" y1="31.2844" x2="40.8456" y2="128.715" gradientUnits="userSpaceOnUse">
<stop stop-color="#A7CAFF" stop-opacity="0.6"/>
<stop offset="1" stop-color="#A7CAFF" stop-opacity="0"/>
</linearGradient>
<clipPath id="clip0_192_11111">
<rect width="95.2" height="96.1333" fill="white" transform="translate(32.4001 32.3999)"/>
</clipPath>
</defs>
</svg>
