<svg width="162" height="164" viewBox="0 0 162 164" fill="none" xmlns="http://www.w3.org/2000/svg">
<path d="M41.8 22.2665L41.8001 141.733" stroke="white" stroke-opacity="0.6" stroke-width="1.86667"/>
<path d="M45.5334 22.2665L45.5335 141.733" stroke="white" stroke-opacity="0.6" stroke-width="1.86667"/>
<path d="M49.2668 22.2665L49.2669 141.733" stroke="white" stroke-opacity="0.6" stroke-width="1.86667"/>
<path d="M53 22.2665L53 141.733" stroke="white" stroke-opacity="0.6" stroke-width="1.86667"/>
<path d="M56.7334 22.2665L56.7334 141.733" stroke="white" stroke-opacity="0.6" stroke-width="1.86667"/>
<path d="M60.4668 22.2665L60.4668 141.733" stroke="white" stroke-opacity="0.6" stroke-width="1.86667"/>
<path d="M64.2002 22.2665L64.2002 141.733" stroke="white" stroke-opacity="0.6" stroke-width="1.86667"/>
<path d="M67.9333 22.2665L67.9334 141.733" stroke="white" stroke-opacity="0.6" stroke-width="1.86667"/>
<path d="M71.6667 22.2665L71.6668 141.733" stroke="white" stroke-opacity="0.6" stroke-width="1.86667"/>
<path d="M75.4001 22.2665L75.4002 141.733" stroke="white" stroke-opacity="0.6" stroke-width="1.86667"/>
<path d="M79.1335 22.2665L79.1336 141.733" stroke="white" stroke-opacity="0.6" stroke-width="1.86667"/>
<path d="M82.8667 22.2665L82.8667 141.733" stroke="white" stroke-opacity="0.6" stroke-width="1.86667"/>
<path d="M86.6001 22.2665L86.6001 141.733" stroke="white" stroke-opacity="0.6" stroke-width="1.86667"/>
<path d="M90.3335 22.2665L90.3335 141.733" stroke="white" stroke-opacity="0.6" stroke-width="1.86667"/>
<path d="M94.0667 22.2665L94.0667 141.733" stroke="white" stroke-opacity="0.6" stroke-width="1.86667"/>
<path d="M97.8 22.2665L97.8001 141.733" stroke="white" stroke-opacity="0.6" stroke-width="1.86667"/>
<path d="M101.533 22.2665L101.533 141.733" stroke="white" stroke-opacity="0.6" stroke-width="1.86667"/>
<path d="M105.267 22.2665L105.267 141.733" stroke="white" stroke-opacity="0.6" stroke-width="1.86667"/>
<path d="M109 22.2665L109 141.733" stroke="white" stroke-opacity="0.6" stroke-width="1.86667"/>
<path d="M112.733 22.2665L112.733 141.733" stroke="white" stroke-opacity="0.6" stroke-width="1.86667"/>
<path d="M116.467 22.2665L116.467 141.733" stroke="white" stroke-opacity="0.6" stroke-width="1.86667"/>
<path d="M120.2 22.2665L120.2 141.733" stroke="white" stroke-opacity="0.6" stroke-width="1.86667"/>
<path d="M41.8 18.5332L41.8001 145.467" stroke="white" stroke-opacity="0.6" stroke-width="0.933333"/>
<path d="M45.5334 18.5331L45.5335 145.466" stroke="white" stroke-opacity="0.6" stroke-width="0.933333"/>
<path d="M49.2668 18.5331L49.2669 145.466" stroke="white" stroke-opacity="0.6" stroke-width="0.933333"/>
<path d="M53 18.5331L53 145.466" stroke="white" stroke-opacity="0.6" stroke-width="0.933333"/>
<path d="M56.7334 18.5331L56.7334 145.466" stroke="white" stroke-opacity="0.6" stroke-width="0.933333"/>
<path d="M60.4668 18.5331L60.4668 145.466" stroke="white" stroke-opacity="0.6" stroke-width="0.933333"/>
<path d="M64.2002 18.5331L64.2002 145.466" stroke="white" stroke-opacity="0.6" stroke-width="0.933333"/>
<path d="M67.9333 18.5331L67.9334 145.466" stroke="white" stroke-opacity="0.6" stroke-width="0.933333"/>
<path d="M71.6667 18.5331L71.6668 145.466" stroke="white" stroke-opacity="0.6" stroke-width="0.933333"/>
<path d="M75.4001 18.5331L75.4002 145.466" stroke="white" stroke-opacity="0.6" stroke-width="0.933333"/>
<path d="M79.1335 18.5331L79.1336 145.466" stroke="white" stroke-opacity="0.6" stroke-width="0.933333"/>
<path d="M82.8667 18.5331L82.8667 145.466" stroke="white" stroke-opacity="0.6" stroke-width="0.933333"/>
<path d="M86.6001 18.5331L86.6001 145.466" stroke="white" stroke-opacity="0.6" stroke-width="0.933333"/>
<path d="M90.3335 18.5331L90.3335 145.466" stroke="white" stroke-opacity="0.6" stroke-width="0.933333"/>
<path d="M94.0667 18.5331L94.0667 145.466" stroke="white" stroke-opacity="0.6" stroke-width="0.933333"/>
<path d="M97.8 18.5331L97.8001 145.466" stroke="white" stroke-opacity="0.6" stroke-width="0.933333"/>
<path d="M101.533 18.5331L101.533 145.466" stroke="white" stroke-opacity="0.6" stroke-width="0.933333"/>
<path d="M105.267 18.5331L105.267 145.466" stroke="white" stroke-opacity="0.6" stroke-width="0.933333"/>
<path d="M109 18.5331L109 145.466" stroke="white" stroke-opacity="0.6" stroke-width="0.933333"/>
<path d="M112.733 18.5331L112.733 145.466" stroke="white" stroke-opacity="0.6" stroke-width="0.933333"/>
<path d="M116.467 18.5331L116.467 145.466" stroke="white" stroke-opacity="0.6" stroke-width="0.933333"/>
<path d="M120.2 18.5331L120.2 145.466" stroke="white" stroke-opacity="0.6" stroke-width="0.933333"/>
<path d="M144.467 42.7999L17.5335 42.7999" stroke="white" stroke-opacity="0.6" stroke-width="0.933333"/>
<path d="M144.467 46.5333L17.5335 46.5333" stroke="white" stroke-opacity="0.6" stroke-width="0.933333"/>
<path d="M144.467 50.2666L17.5335 50.2666" stroke="white" stroke-opacity="0.6" stroke-width="0.933333"/>
<path d="M144.467 53.9999L17.5335 53.9999" stroke="white" stroke-opacity="0.6" stroke-width="0.933333"/>
<path d="M144.467 57.7333L17.5335 57.7333" stroke="white" stroke-opacity="0.6" stroke-width="0.933333"/>
<path d="M144.467 61.4666L17.5335 61.4666" stroke="white" stroke-opacity="0.6" stroke-width="0.933333"/>
<path d="M144.467 65.2L17.5335 65.2" stroke="white" stroke-opacity="0.6" stroke-width="0.933333"/>
<path d="M144.467 68.9333L17.5335 68.9333" stroke="white" stroke-opacity="0.6" stroke-width="0.933333"/>
<path d="M144.467 72.6666L17.5335 72.6666" stroke="white" stroke-opacity="0.6" stroke-width="0.933333"/>
<path d="M144.467 76.4L17.5335 76.4" stroke="white" stroke-opacity="0.6" stroke-width="0.933333"/>
<path d="M144.467 80.1333L17.5335 80.1333" stroke="white" stroke-opacity="0.6" stroke-width="0.933333"/>
<path d="M144.467 83.8668L17.5335 83.8668" stroke="white" stroke-opacity="0.6" stroke-width="0.933333"/>
<path d="M144.467 87.6001L17.5335 87.6001" stroke="white" stroke-opacity="0.6" stroke-width="0.933333"/>
<path d="M144.467 91.3334L17.5335 91.3334" stroke="white" stroke-opacity="0.6" stroke-width="0.933333"/>
<path d="M144.467 95.0667L17.5335 95.0667" stroke="white" stroke-opacity="0.6" stroke-width="0.933333"/>
<path d="M144.467 98.8L17.5335 98.8" stroke="white" stroke-opacity="0.6" stroke-width="0.933333"/>
<path d="M144.467 102.533L17.5335 102.533" stroke="white" stroke-opacity="0.6" stroke-width="0.933333"/>
<path d="M144.467 106.267L17.5335 106.267" stroke="white" stroke-opacity="0.6" stroke-width="0.933333"/>
<path d="M144.467 110L17.5335 110" stroke="white" stroke-opacity="0.6" stroke-width="0.933333"/>
<path d="M144.467 113.733L17.5335 113.733" stroke="white" stroke-opacity="0.6" stroke-width="0.933333"/>
<path d="M144.467 117.467L17.5335 117.467" stroke="white" stroke-opacity="0.6" stroke-width="0.933333"/>
<path d="M144.467 121.2L17.5335 121.2" stroke="white" stroke-opacity="0.6" stroke-width="0.933333"/>
<path d="M140.733 42.7999L21.2667 42.7999" stroke="white" stroke-opacity="0.6" stroke-width="1.86667"/>
<path d="M140.733 46.5333L21.2667 46.5333" stroke="white" stroke-opacity="0.6" stroke-width="1.86667"/>
<path d="M140.733 50.2666L21.2667 50.2666" stroke="white" stroke-opacity="0.6" stroke-width="1.86667"/>
<path d="M140.733 53.9999L21.2667 53.9999" stroke="white" stroke-opacity="0.6" stroke-width="1.86667"/>
<path d="M140.733 57.7333L21.2667 57.7333" stroke="white" stroke-opacity="0.6" stroke-width="1.86667"/>
<path d="M140.733 61.4666L21.2667 61.4666" stroke="white" stroke-opacity="0.6" stroke-width="1.86667"/>
<path d="M140.733 65.2L21.2667 65.2" stroke="white" stroke-opacity="0.6" stroke-width="1.86667"/>
<path d="M140.733 68.9333L21.2667 68.9333" stroke="white" stroke-opacity="0.6" stroke-width="1.86667"/>
<path d="M140.733 72.6666L21.2667 72.6666" stroke="white" stroke-opacity="0.6" stroke-width="1.86667"/>
<path d="M140.733 76.4L21.2667 76.4" stroke="white" stroke-opacity="0.6" stroke-width="1.86667"/>
<path d="M140.733 80.1333L21.2667 80.1333" stroke="white" stroke-opacity="0.6" stroke-width="1.86667"/>
<path d="M140.733 83.8668L21.2667 83.8668" stroke="white" stroke-opacity="0.6" stroke-width="1.86667"/>
<path d="M140.733 87.6001L21.2667 87.6001" stroke="white" stroke-opacity="0.6" stroke-width="1.86667"/>
<path d="M140.733 91.3334L21.2667 91.3334" stroke="white" stroke-opacity="0.6" stroke-width="1.86667"/>
<path d="M140.733 95.0667L21.2667 95.0667" stroke="white" stroke-opacity="0.6" stroke-width="1.86667"/>
<path d="M140.733 98.8L21.2667 98.8" stroke="white" stroke-opacity="0.6" stroke-width="1.86667"/>
<path d="M140.733 102.533L21.2667 102.533" stroke="white" stroke-opacity="0.6" stroke-width="1.86667"/>
<path d="M140.733 106.267L21.2667 106.267" stroke="white" stroke-opacity="0.6" stroke-width="1.86667"/>
<path d="M140.733 110L21.2667 110" stroke="white" stroke-opacity="0.6" stroke-width="1.86667"/>
<path d="M140.733 113.733L21.2667 113.733" stroke="white" stroke-opacity="0.6" stroke-width="1.86667"/>
<path d="M140.733 117.467L21.2667 117.467" stroke="white" stroke-opacity="0.6" stroke-width="1.86667"/>
<path d="M140.733 121.2L21.2667 121.2" stroke="white" stroke-opacity="0.6" stroke-width="1.86667"/>
<g filter="url(#filter0_f_13_11482)">
<rect x="37.7024" y="37.86" width="86.5041" height="88.3252" rx="21.8537" fill="#25FF01"/>
</g>
<mask id="path-90-inside-1_13_11482" fill="white">
<path fill-rule="evenodd" clip-rule="evenodd" d="M37.4193 26.2827C37.6004 26.1016 37.846 25.9999 38.102 25.9999H124.109C124.365 25.9999 124.611 26.1016 124.792 26.2827L136.717 38.2077C136.898 38.3888 137 38.6344 137 38.8905V125.322C137 125.578 136.898 125.823 136.717 126.004L125.005 137.717C124.824 137.898 124.578 138 124.322 138H37.8907C37.6347 138 37.3891 137.898 37.208 137.717L25.2828 125.792C25.1017 125.611 25 125.365 25 125.109V39.1019C25 38.8458 25.1017 38.6003 25.2828 38.4192L37.4193 26.2827Z"/>
</mask>
<path fill-rule="evenodd" clip-rule="evenodd" d="M37.4193 26.2827C37.6004 26.1016 37.846 25.9999 38.102 25.9999H124.109C124.365 25.9999 124.611 26.1016 124.792 26.2827L136.717 38.2077C136.898 38.3888 137 38.6344 137 38.8905V125.322C137 125.578 136.898 125.823 136.717 126.004L125.005 137.717C124.824 137.898 124.578 138 124.322 138H37.8907C37.6347 138 37.3891 137.898 37.208 137.717L25.2828 125.792C25.1017 125.611 25 125.365 25 125.109V39.1019C25 38.8458 25.1017 38.6003 25.2828 38.4192L37.4193 26.2827Z" fill="url(#paint0_linear_13_11482)"/>
<path d="M25.2828 38.4192L25.9267 39.0631L25.2828 38.4192ZM25.2828 125.792L24.6389 126.436L25.2828 125.792ZM37.208 137.717L36.5641 138.361L36.5641 138.361L37.208 137.717ZM136.717 38.2077L137.361 37.5639L136.717 38.2077ZM124.792 26.2827L124.148 26.9265L124.792 26.2827ZM124.109 25.0893H38.102V26.9104H124.109V25.0893ZM137.361 37.5639L125.436 25.6388L124.148 26.9265L136.073 38.8516L137.361 37.5639ZM137.911 125.322V38.8905H136.089V125.322H137.911ZM125.648 138.361L137.361 126.648L136.073 125.361L124.361 137.073L125.648 138.361ZM37.8907 138.91H124.322V137.089H37.8907V138.91ZM24.6389 126.436L36.5641 138.361L37.8519 137.073L25.9267 125.148L24.6389 126.436ZM24.0894 39.1019V125.109H25.9106V39.1019H24.0894ZM36.7754 25.6388L24.6389 37.7753L25.9267 39.0631L38.0632 26.9265L36.7754 25.6388ZM25.9106 39.1019C25.9106 39.0873 25.9164 39.0734 25.9267 39.0631L24.6389 37.7753C24.2871 38.1271 24.0894 38.6043 24.0894 39.1019H25.9106ZM25.9267 125.148C25.9164 125.138 25.9106 125.124 25.9106 125.109H24.0894C24.0894 125.607 24.2871 126.084 24.6389 126.436L25.9267 125.148ZM37.8907 137.089C37.8762 137.089 37.8622 137.084 37.8519 137.073L36.5641 138.361C36.916 138.713 37.3932 138.91 37.8907 138.91V137.089ZM124.361 137.073C124.35 137.084 124.336 137.089 124.322 137.089V138.91C124.819 138.91 125.297 138.713 125.648 138.361L124.361 137.073ZM136.089 125.322C136.089 125.336 136.084 125.35 136.073 125.361L137.361 126.648C137.713 126.296 137.911 125.819 137.911 125.322H136.089ZM136.073 38.8516C136.084 38.8619 136.089 38.8759 136.089 38.8905H137.911C137.911 38.3929 137.713 37.9157 137.361 37.5639L136.073 38.8516ZM38.102 25.0893C37.6045 25.0893 37.1273 25.287 36.7754 25.6388L38.0632 26.9265C38.0735 26.9162 38.0875 26.9104 38.102 26.9104V25.0893ZM124.109 26.9104C124.124 26.9104 124.138 26.9162 124.148 26.9265L125.436 25.6388C125.084 25.287 124.607 25.0893 124.109 25.0893V26.9104Z" fill="url(#paint1_linear_13_11482)" fill-opacity="0.12" mask="url(#path-90-inside-1_13_11482)"/>
<g filter="url(#filter1_f_13_11482)">
<path d="M33.0069 42.7272L33.4621 43.1823L33.0069 42.7272ZM33.0069 121.455L33.4621 121L33.0069 121.455ZM41.5445 129.993L41.0894 130.448L41.5445 129.993ZM128.993 42.544L129.448 42.0888L128.993 42.544ZM120.456 34.0067L120.001 34.4619L120.456 34.0067ZM119.773 33.0803H42.4101V34.3676H119.773V33.0803ZM129.448 42.0888L120.911 33.5516L120.001 34.4619L128.538 42.9991L129.448 42.0888ZM129.92 120.956V43.2267H128.632V120.956H129.92ZM121.094 130.448L129.448 122.094L128.538 121.183L120.184 129.538L121.094 130.448ZM42.2273 130.919H119.956V129.632H42.2273V130.919ZM32.5518 121.91L41.0894 130.448L41.9997 129.538L33.4621 121L32.5518 121.91ZM32.0804 43.4099V120.773H33.3678V43.4099H32.0804ZM41.2722 33.5516L32.5518 42.272L33.4621 43.1823L42.1825 34.4619L41.2722 33.5516ZM33.3678 43.4099C33.3678 43.3245 33.4017 43.2427 33.4621 43.1823L32.5518 42.272C32.25 42.5738 32.0804 42.9831 32.0804 43.4099H33.3678ZM33.4621 121C33.4017 120.94 33.3678 120.858 33.3678 120.773H32.0804C32.0804 121.199 32.25 121.609 32.5518 121.91L33.4621 121ZM42.2273 129.632C42.1419 129.632 42.0601 129.598 41.9997 129.538L41.0894 130.448C41.3912 130.75 41.8005 130.919 42.2273 130.919V129.632ZM120.184 129.538C120.123 129.598 120.041 129.632 119.956 129.632V130.919C120.383 130.919 120.792 130.75 121.094 130.448L120.184 129.538ZM128.632 120.956C128.632 121.041 128.598 121.123 128.538 121.183L129.448 122.094C129.75 121.792 129.92 121.383 129.92 120.956H128.632ZM128.538 42.9991C128.598 43.0595 128.632 43.1413 128.632 43.2267H129.92C129.92 42.7999 129.75 42.3906 129.448 42.0888L128.538 42.9991ZM42.4101 33.0803C41.9833 33.0803 41.574 33.2498 41.2722 33.5516L42.1825 34.4619C42.2429 34.4015 42.3247 34.3676 42.4101 34.3676V33.0803ZM119.773 34.3676C119.858 34.3676 119.94 34.4015 120.001 34.4619L120.911 33.5516C120.609 33.2498 120.2 33.0803 119.773 33.0803V34.3676Z" fill="#02AACF"/>
</g>
<path fill-rule="evenodd" clip-rule="evenodd" d="M39.3876 31.1102C39.5686 30.9292 39.8142 30.8275 40.0703 30.8275H122.123C122.379 30.8275 122.625 30.9292 122.806 31.1102L131.89 40.1943C132.071 40.3753 132.172 40.6209 132.172 40.877V123.317C132.172 123.573 132.071 123.819 131.89 124L123 132.889C122.819 133.071 122.574 133.172 122.317 133.172H39.8767C39.6206 133.172 39.375 133.071 39.1939 132.889L30.1104 123.806C29.9294 123.625 29.8276 123.379 29.8276 123.123V41.0701C29.8276 40.814 29.9294 40.5685 30.1104 40.3874L39.3876 31.1102Z" fill="url(#paint2_linear_13_11482)"/>
<mask id="mask0_13_11482" style="mask-type:alpha" maskUnits="userSpaceOnUse" x="31" y="29" width="123" height="127">
<path fill-rule="evenodd" clip-rule="evenodd" d="M127.894 29.6421H153.39V137.089L144.285 137.089L138.821 137.089V155.301L31.374 155.301L31.374 129.805L118.789 129.805V121.61H127.894V29.6421Z" fill="black"/>
</mask>
<g mask="url(#mask0_13_11482)">
<path fill-rule="evenodd" clip-rule="evenodd" d="M39.3876 31.1103C39.5686 30.9292 39.8142 30.8275 40.0703 30.8275H122.123C122.379 30.8275 122.625 30.9292 122.806 31.1103L131.89 40.1943C132.071 40.3754 132.172 40.621 132.172 40.8771V123.317C132.172 123.573 132.071 123.819 131.89 124L123 132.89C122.819 133.071 122.574 133.172 122.317 133.172H39.8767C39.6206 133.172 39.375 133.071 39.1939 132.89L30.1104 123.806C29.9294 123.625 29.8276 123.379 29.8276 123.123V41.0702C29.8276 40.8141 29.9294 40.5685 30.1104 40.3874L39.3876 31.1103Z" fill="black" fill-opacity="0.3"/>
</g>
<mask id="mask1_13_11482" style="mask-type:alpha" maskUnits="userSpaceOnUse" x="29" y="29" width="104" height="14">
<rect x="29.5527" y="29.6421" width="102.894" height="12.748" fill="#4355B7"/>
</mask>
<g mask="url(#mask1_13_11482)">
<path fill-rule="evenodd" clip-rule="evenodd" d="M39.3876 31.1104C39.5686 30.9294 39.8142 30.8276 40.0703 30.8276H122.123C122.379 30.8276 122.625 30.9294 122.806 31.1104L131.89 40.1944C132.071 40.3755 132.172 40.6211 132.172 40.8772V123.317C132.172 123.574 132.071 123.819 131.89 124L123 132.89C122.819 133.071 122.574 133.172 122.317 133.172H39.8767C39.6206 133.172 39.375 133.071 39.1939 132.89L30.1104 123.806C29.9294 123.625 29.8276 123.379 29.8276 123.123V41.0703C29.8276 40.8142 29.9294 40.5686 30.1104 40.3876L39.3876 31.1104Z" fill="#4355B7"/>
</g>
<mask id="path-98-inside-2_13_11482" fill="white">
<path fill-rule="evenodd" clip-rule="evenodd" d="M41.7271 34.0067C41.9081 33.8257 42.1537 33.7239 42.4098 33.7239H119.773C120.029 33.7239 120.275 33.8257 120.456 34.0067L128.993 42.544C129.174 42.7251 129.276 42.9707 129.276 43.2268V120.955C129.276 121.212 129.174 121.457 128.993 121.638L120.638 129.993C120.457 130.174 120.212 130.276 119.956 130.276H42.2273C41.9712 130.276 41.7257 130.174 41.5446 129.993L33.0069 121.455C32.8258 121.274 32.7241 121.029 32.7241 120.772V43.4096C32.7241 43.1535 32.8258 42.908 33.0069 42.7269L41.7271 34.0067Z"/>
</mask>
<path fill-rule="evenodd" clip-rule="evenodd" d="M41.7271 34.0067C41.9081 33.8257 42.1537 33.7239 42.4098 33.7239H119.773C120.029 33.7239 120.275 33.8257 120.456 34.0067L128.993 42.544C129.174 42.7251 129.276 42.9707 129.276 43.2268V120.955C129.276 121.212 129.174 121.457 128.993 121.638L120.638 129.993C120.457 130.174 120.212 130.276 119.956 130.276H42.2273C41.9712 130.276 41.7257 130.174 41.5446 129.993L33.0069 121.455C32.8258 121.274 32.7241 121.029 32.7241 120.772V43.4096C32.7241 43.1535 32.8258 42.908 33.0069 42.7269L41.7271 34.0067Z" fill="url(#paint3_linear_13_11482)"/>
<path d="M33.0069 42.7269L33.3288 43.0488L33.0069 42.7269ZM33.0069 121.455L33.3288 121.133L33.0069 121.455ZM41.5446 129.993L41.8665 129.671L41.5446 129.993ZM128.993 42.544L128.671 42.866L128.993 42.544ZM120.456 34.0067L120.778 33.6848L120.456 34.0067ZM119.773 33.2687H42.4098V34.1792H119.773V33.2687ZM129.315 42.2221L120.778 33.6848L120.134 34.3287L128.671 42.866L129.315 42.2221ZM129.731 120.955V43.2268H128.821V120.955H129.731ZM120.96 130.315L129.315 121.96L128.671 121.316L120.316 129.671L120.96 130.315ZM42.2273 130.731H119.956V129.82H42.2273V130.731ZM32.685 121.777L41.2227 130.315L41.8665 129.671L33.3288 121.133L32.685 121.777ZM32.2688 43.4096V120.772H33.1794V43.4096H32.2688ZM41.4051 33.6848L32.685 42.405L33.3288 43.0488L42.049 34.3287L41.4051 33.6848ZM33.1794 43.4096C33.1794 43.2743 33.2332 43.1445 33.3288 43.0488L32.685 42.405C32.4185 42.6714 32.2688 43.0328 32.2688 43.4096H33.1794ZM33.3288 121.133C33.2332 121.038 33.1794 120.908 33.1794 120.772H32.2688C32.2688 121.149 32.4185 121.511 32.685 121.777L33.3288 121.133ZM42.2273 129.82C42.092 129.82 41.9622 129.767 41.8665 129.671L41.2227 130.315C41.4891 130.581 41.8505 130.731 42.2273 130.731V129.82ZM120.316 129.671C120.221 129.767 120.091 129.82 119.956 129.82V130.731C120.332 130.731 120.694 130.581 120.96 130.315L120.316 129.671ZM128.821 120.955C128.821 121.091 128.767 121.221 128.671 121.316L129.315 121.96C129.581 121.694 129.731 121.332 129.731 120.955H128.821ZM128.671 42.866C128.767 42.9617 128.821 43.0914 128.821 43.2268H129.731C129.731 42.85 129.581 42.4886 129.315 42.2221L128.671 42.866ZM42.4098 33.2687C42.033 33.2687 41.6716 33.4183 41.4051 33.6848L42.049 34.3287C42.1447 34.233 42.2745 34.1792 42.4098 34.1792V33.2687ZM119.773 34.1792C119.908 34.1792 120.038 34.233 120.134 34.3287L120.778 33.6848C120.511 33.4183 120.15 33.2687 119.773 33.2687V34.1792Z" fill="url(#paint4_linear_13_11482)" mask="url(#path-98-inside-2_13_11482)"/>
<g clip-path="url(#clip0_13_11482)">
<mask id="mask2_13_11482" style="mask-type:alpha" maskUnits="userSpaceOnUse" x="32" y="33" width="98" height="98">
<mask id="path-100-inside-3_13_11482" fill="white">
<path fill-rule="evenodd" clip-rule="evenodd" d="M41.7271 34.0068C41.9081 33.8257 42.1537 33.724 42.4098 33.724H119.773C120.029 33.724 120.275 33.8257 120.456 34.0068L128.993 42.5441C129.174 42.7252 129.276 42.9708 129.276 43.2268V120.956C129.276 121.212 129.174 121.457 128.993 121.638L120.638 129.993C120.457 130.174 120.212 130.276 119.956 130.276H42.2273C41.9712 130.276 41.7257 130.174 41.5446 129.993L33.0069 121.455C32.8258 121.274 32.7241 121.029 32.7241 120.773V43.4097C32.7241 43.1536 32.8258 42.908 33.0069 42.727L41.7271 34.0068Z"/>
</mask>
<path fill-rule="evenodd" clip-rule="evenodd" d="M41.7271 34.0068C41.9081 33.8257 42.1537 33.724 42.4098 33.724H119.773C120.029 33.724 120.275 33.8257 120.456 34.0068L128.993 42.5441C129.174 42.7252 129.276 42.9708 129.276 43.2268V120.956C129.276 121.212 129.174 121.457 128.993 121.638L120.638 129.993C120.457 130.174 120.212 130.276 119.956 130.276H42.2273C41.9712 130.276 41.7257 130.174 41.5446 129.993L33.0069 121.455C32.8258 121.274 32.7241 121.029 32.7241 120.773V43.4097C32.7241 43.1536 32.8258 42.908 33.0069 42.727L41.7271 34.0068Z" fill="url(#paint5_linear_13_11482)"/>
<path d="M33.0069 42.727L33.3288 43.0489L33.0069 42.727ZM33.0069 121.455L33.3288 121.133L33.0069 121.455ZM41.5446 129.993L41.8665 129.671L41.5446 129.993ZM128.993 42.5441L128.671 42.866L128.993 42.5441ZM120.456 34.0068L120.778 33.6849L120.456 34.0068ZM119.773 33.2687H42.4098V34.1793H119.773V33.2687ZM129.315 42.2222L120.778 33.6849L120.134 34.3287L128.671 42.866L129.315 42.2222ZM129.731 120.956V43.2268H128.821V120.956H129.731ZM120.96 130.315L129.315 121.96L128.671 121.316L120.316 129.671L120.96 130.315ZM42.2273 130.731H119.956V129.82H42.2273V130.731ZM32.685 121.777L41.2227 130.315L41.8665 129.671L33.3288 121.133L32.685 121.777ZM32.2688 43.4097V120.773H33.1794V43.4097H32.2688ZM41.4051 33.6849L32.685 42.405L33.3288 43.0489L42.049 34.3287L41.4051 33.6849ZM33.1794 43.4097C33.1794 43.2744 33.2332 43.1446 33.3288 43.0489L32.685 42.405C32.4185 42.6715 32.2688 43.0329 32.2688 43.4097H33.1794ZM33.3288 121.133C33.2332 121.038 33.1794 120.908 33.1794 120.773H32.2688C32.2688 121.149 32.4185 121.511 32.685 121.777L33.3288 121.133ZM42.2273 129.82C42.092 129.82 41.9622 129.767 41.8665 129.671L41.2227 130.315C41.4891 130.581 41.8505 130.731 42.2273 130.731V129.82ZM120.316 129.671C120.221 129.767 120.091 129.82 119.956 129.82V130.731C120.332 130.731 120.694 130.581 120.96 130.315L120.316 129.671ZM128.821 120.956C128.821 121.091 128.767 121.221 128.671 121.316L129.315 121.96C129.581 121.694 129.731 121.332 129.731 120.956H128.821ZM128.671 42.866C128.767 42.9617 128.821 43.0915 128.821 43.2268H129.731C129.731 42.85 129.581 42.4886 129.315 42.2222L128.671 42.866ZM42.4098 33.2687C42.033 33.2687 41.6716 33.4184 41.4051 33.6849L42.049 34.3287C42.1447 34.233 42.2745 34.1793 42.4098 34.1793V33.2687ZM119.773 34.1793C119.908 34.1793 120.038 34.233 120.134 34.3287L120.778 33.6849C120.511 33.4184 120.15 33.2687 119.773 33.2687V34.1793Z" fill="url(#paint6_linear_13_11482)" mask="url(#path-100-inside-3_13_11482)"/>
</mask>
<g mask="url(#mask2_13_11482)">
<g filter="url(#filter2_f_13_11482)">
<rect x="33.4001" y="95.9999" width="95.2" height="61.6" rx="30.8" fill="#25FF01" fill-opacity="0.24"/>
</g>
</g>
</g>
<mask id="path-103-inside-4_13_11482" fill="white">
<path fill-rule="evenodd" clip-rule="evenodd" d="M39.3876 31.1102C39.5686 30.9292 39.8142 30.8275 40.0703 30.8275H122.123C122.379 30.8275 122.625 30.9292 122.806 31.1102L131.89 40.1943C132.071 40.3753 132.172 40.6209 132.172 40.877V123.317C132.172 123.573 132.071 123.819 131.89 124L123 132.889C122.819 133.071 122.574 133.172 122.317 133.172H39.8767C39.6206 133.172 39.375 133.071 39.1939 132.889L30.1104 123.806C29.9294 123.625 29.8276 123.379 29.8276 123.123V41.0701C29.8276 40.814 29.9294 40.5685 30.1104 40.3874L39.3876 31.1102Z"/>
</mask>
<path d="M30.1104 40.3874L30.4404 40.7174L30.1104 40.3874ZM30.1104 123.806L30.4404 123.476L30.1104 123.806ZM39.1939 132.889L38.8639 133.219L39.1939 132.889ZM131.89 40.1943L132.22 39.8643L131.89 40.1943ZM122.806 31.1102L122.476 31.4402L122.806 31.1102ZM122.123 30.3608H40.0703V31.2941H122.123V30.3608ZM132.22 39.8643L123.136 30.7803L122.476 31.4402L131.56 40.5243L132.22 39.8643ZM132.639 123.317V40.877H131.706V123.317H132.639ZM123.33 133.219L132.22 124.33L131.56 123.67L122.67 132.56L123.33 133.219ZM39.8767 133.639H122.317V132.706H39.8767V133.639ZM29.7804 124.136L38.8639 133.219L39.5239 132.56L30.4404 123.476L29.7804 124.136ZM29.361 41.0701V123.123H30.2943V41.0701H29.361ZM39.0576 30.7803L29.7804 40.0574L30.4404 40.7174L39.7176 31.4402L39.0576 30.7803ZM30.2943 41.0701C30.2943 40.9378 30.3469 40.8109 30.4404 40.7174L29.7804 40.0574C29.5119 40.326 29.361 40.6903 29.361 41.0701H30.2943ZM30.4404 123.476C30.3469 123.382 30.2943 123.256 30.2943 123.123H29.361C29.361 123.503 29.5119 123.867 29.7804 124.136L30.4404 123.476ZM39.8767 132.706C39.7443 132.706 39.6175 132.653 39.5239 132.56L38.8639 133.219C39.1325 133.488 39.4968 133.639 39.8767 133.639V132.706ZM122.67 132.56C122.577 132.653 122.45 132.706 122.317 132.706V133.639C122.697 133.639 123.062 133.488 123.33 133.219L122.67 132.56ZM131.706 123.317C131.706 123.45 131.653 123.576 131.56 123.67L132.22 124.33C132.488 124.061 132.639 123.697 132.639 123.317H131.706ZM131.56 40.5243C131.653 40.6178 131.706 40.7447 131.706 40.877H132.639C132.639 40.4972 132.488 40.1329 132.22 39.8643L131.56 40.5243ZM40.0703 30.3608C39.6905 30.3608 39.3262 30.5117 39.0576 30.7803L39.7176 31.4402C39.8111 31.3467 39.938 31.2941 40.0703 31.2941V30.3608ZM122.123 31.2941C122.255 31.2941 122.382 31.3467 122.476 31.4402L123.136 30.7803C122.867 30.5117 122.503 30.3608 122.123 30.3608V31.2941Z" fill="url(#paint7_linear_13_11482)" mask="url(#path-103-inside-4_13_11482)"/>
<defs>
<filter id="filter0_f_13_11482" x="0.369061" y="0.526714" width="161.171" height="162.992" filterUnits="userSpaceOnUse" color-interpolation-filters="sRGB">
<feFlood flood-opacity="0" result="BackgroundImageFix"/>
<feBlend mode="normal" in="SourceGraphic" in2="BackgroundImageFix" result="shape"/>
<feGaussianBlur stdDeviation="18.6667" result="effect1_foregroundBlur_13_11482"/>
</filter>
<filter id="filter1_f_13_11482" x="26.9309" y="27.9308" width="108.138" height="108.138" filterUnits="userSpaceOnUse" color-interpolation-filters="sRGB">
<feFlood flood-opacity="0" result="BackgroundImageFix"/>
<feBlend mode="normal" in="SourceGraphic" in2="BackgroundImageFix" result="shape"/>
<feGaussianBlur stdDeviation="2.57471" result="effect1_foregroundBlur_13_11482"/>
</filter>
<filter id="filter2_f_13_11482" x="-3.93319" y="58.6666" width="169.867" height="136.267" filterUnits="userSpaceOnUse" color-interpolation-filters="sRGB">
<feFlood flood-opacity="0" result="BackgroundImageFix"/>
<feBlend mode="normal" in="SourceGraphic" in2="BackgroundImageFix" result="shape"/>
<feGaussianBlur stdDeviation="18.6667" result="effect1_foregroundBlur_13_11482"/>
</filter>
<linearGradient id="paint0_linear_13_11482" x1="81" y1="138" x2="81" y2="25.9999" gradientUnits="userSpaceOnUse">
<stop stop-color="#181134"/>
<stop offset="1" stop-color="#222C5F"/>
</linearGradient>
<linearGradient id="paint1_linear_13_11482" x1="130.593" y1="25.9999" x2="75.5424" y2="149.627" gradientUnits="userSpaceOnUse">
<stop stop-color="white"/>
<stop offset="1" stop-color="white" stop-opacity="0"/>
</linearGradient>
<linearGradient id="paint2_linear_13_11482" x1="81.0001" y1="133.172" x2="81" y2="30.8275" gradientUnits="userSpaceOnUse">
<stop stop-color="#181134"/>
<stop offset="1" stop-color="#222C5F"/>
</linearGradient>
<linearGradient id="paint3_linear_13_11482" x1="81" y1="130.276" x2="81" y2="33.7239" gradientUnits="userSpaceOnUse">
<stop stop-color="#181134"/>
<stop offset="1" stop-color="#222C5F"/>
</linearGradient>
<linearGradient id="paint4_linear_13_11482" x1="123.342" y1="33.2843" x2="41.8456" y2="130.715" gradientUnits="userSpaceOnUse">
<stop stop-color="#A7CAFF" stop-opacity="0.6"/>
<stop offset="1" stop-color="#A7CAFF" stop-opacity="0"/>
</linearGradient>
<linearGradient id="paint5_linear_13_11482" x1="81" y1="130.276" x2="81" y2="33.724" gradientUnits="userSpaceOnUse">
<stop stop-color="#181134"/>
<stop offset="1" stop-color="#222C5F"/>
</linearGradient>
<linearGradient id="paint6_linear_13_11482" x1="123.342" y1="33.2844" x2="41.8456" y2="130.715" gradientUnits="userSpaceOnUse">
<stop stop-color="#A7CAFF" stop-opacity="0.6"/>
<stop offset="1" stop-color="#A7CAFF" stop-opacity="0"/>
</linearGradient>
<linearGradient id="paint7_linear_13_11482" x1="132.333" y1="30.6666" x2="81" y2="133.172" gradientUnits="userSpaceOnUse">
<stop stop-color="white" stop-opacity="0.32"/>
<stop offset="1" stop-color="white" stop-opacity="0"/>
</linearGradient>
<clipPath id="clip0_13_11482">
<rect width="95.2" height="96.1333" fill="white" transform="translate(33.4001 34.3999)"/>
</clipPath>
</defs>
</svg>
