<svg width="28" height="28" viewBox="0 0 28 28" fill="none" xmlns="http://www.w3.org/2000/svg">
<path d="M0.424286 23.3248C0.424286 25.0896 4.38671 26.5193 9.27823 26.5193C14.1655 26.5193 18.1237 25.0896 18.1237 23.3248V19.9139H0.424286V23.3248Z" fill="#2977ED"/>
<path d="M18.1237 20.1304C18.1237 21.8952 14.1613 23.3249 9.27823 23.3249C4.38671 23.3249 0.424286 21.8952 0.424286 20.1304C0.424286 18.3655 4.38671 16.9358 9.27823 16.9358C14.1655 16.9358 18.1237 18.3655 18.1237 20.1304Z" fill="#33A9FF"/>
<path d="M0.424286 18.1746C0.424286 19.9395 4.38671 21.3692 9.27823 21.3692C14.1655 21.3692 18.1237 19.9395 18.1237 18.1746V14.7637H0.424286V18.1746Z" fill="#2977ED"/>
<path d="M18.1237 14.98C18.1237 16.7449 14.1613 18.1746 9.27823 18.1746C4.38671 18.1746 0.424286 16.7449 0.424286 14.98C0.424286 13.2152 4.38671 11.7855 9.27823 11.7855C14.1655 11.7855 18.1237 13.2152 18.1237 14.98Z" fill="#33A9FF"/>
<path d="M0.424286 13.0199C0.424286 14.7848 4.38671 16.2145 9.27823 16.2145C14.1655 16.2145 18.1237 14.7848 18.1237 13.0199V9.60904H0.424286V13.0199Z" fill="#2977ED"/>
<path d="M18.1237 9.8254C18.1237 11.5903 14.1613 13.02 9.27823 13.02C4.38671 13.02 0.424286 11.5903 0.424286 9.8254C0.424286 8.06056 4.38671 6.63086 9.27823 6.63086C14.1655 6.63086 18.1237 8.06056 18.1237 9.8254Z" fill="#33A9FF"/>
<path d="M0.424286 7.86965C0.424286 9.6345 4.38671 11.0642 9.27823 11.0642C14.1655 11.0642 18.1237 9.6345 18.1237 7.86965V4.45874H0.424286V7.86965Z" fill="#2977ED"/>
<path d="M18.1237 4.67511C18.1237 6.43995 14.1613 7.86965 9.27823 7.86965C4.38671 7.86965 0.424286 6.43995 0.424286 4.67511C0.424286 2.91026 4.38671 1.48056 9.27823 1.48056C14.1655 1.48056 18.1237 2.91026 18.1237 4.67511Z" fill="#33A9FF"/>
<path d="M19.7866 26.5236C24.0884 26.5236 27.5757 23.0154 27.5757 18.6878C27.5757 14.3602 24.0884 10.8521 19.7866 10.8521C15.4848 10.8521 11.9975 14.3602 11.9975 18.6878C11.9975 23.0154 15.4848 26.5236 19.7866 26.5236Z" fill="#33A9FF"/>
<path d="M19.7868 24.7036C23.0904 24.7036 25.7686 22.0103 25.7686 18.6879C25.7686 15.3655 23.0904 12.6721 19.7868 12.6721C16.4831 12.6721 13.8049 15.3655 13.8049 18.6879C13.8049 22.0103 16.4831 24.7036 19.7868 24.7036Z" fill="#2977ED"/>
<path d="M19.7868 24.7036C23.0904 24.7036 25.7686 22.0103 25.7686 18.6879C25.7686 15.3655 23.0904 12.6721 19.7868 12.6721C16.4831 12.6721 13.8049 15.3655 13.8049 18.6879C13.8049 22.0103 16.4831 24.7036 19.7868 24.7036Z" fill="#2977ED"/>
</svg>
