<svg width="209" height="38" viewBox="0 0 209 38" fill="none" xmlns="http://www.w3.org/2000/svg">
<path fill-rule="evenodd" clip-rule="evenodd" d="M17.7024 9.01398L14.3747 18.3473H19.0021L21.6968 10.3025L24.3859 18.3473H29.0133L25.6856 9.01398H17.7024ZM30.3635 22.168L33.6688 31.479H28.7668L25.6576 22.168H30.3635ZM13.0245 22.168L9.70239 31.5014H14.6212L17.7304 22.168H13.0245Z" fill="#FF6600"/>
<path fill-rule="evenodd" clip-rule="evenodd" d="M36.0049 37.9888C39.2703 35.1219 41.5997 31.3406 42.6913 27.1347C43.783 22.9287 43.5867 18.4919 42.1277 14.3988C40.6688 10.3057 38.0145 6.74497 34.5086 4.17775C31.0027 1.61053 26.8068 0.15511 22.4643 0L24.1449 4.71148C27.2335 5.15744 30.1417 6.43799 32.5561 8.41506C34.9704 10.3921 36.7994 12.9907 37.8456 15.9307C38.8919 18.8706 39.1159 22.0404 38.4933 25.0983C37.8708 28.1561 36.4254 30.986 34.313 33.2829L35.9937 38L36.0049 37.9888ZM20.9068 0C16.5657 0.158296 12.372 1.61601 8.86865 4.18445C5.36527 6.75289 2.71352 10.3138 1.25663 14.4062C-0.200251 18.4987 -0.395183 22.9342 0.697072 27.1387C1.78933 31.3431 4.11847 35.1229 7.38302 37.9888L9.06369 33.2717C6.95128 30.9748 5.50589 28.1449 4.88336 25.087C4.26083 22.0292 4.48477 18.8594 5.53105 15.9195C6.57732 12.9795 8.40624 10.3809 10.8206 8.40386C13.235 6.42679 16.1432 5.14624 19.2318 4.70028L20.9068 0Z" fill="#FF6600"/>
<path d="M63.5379 21.72C61.7179 21.72 60.0879 21.36 58.6479 20.64C57.2279 19.9 56.1079 18.75 55.2879 17.19C54.4879 15.61 54.0879 13.55 54.0879 11.01V10.41C54.0879 8.57 54.3279 7 54.8079 5.7C55.2879 4.38 55.9579 3.3 56.8179 2.46C57.6979 1.62 58.7079 0.999999 59.8479 0.599999C60.9879 0.2 62.2179 0 63.5379 0C64.7179 0 65.8179 0.15 66.8379 0.45C67.8779 0.73 68.7979 1.16 69.5979 1.74C70.3979 2.32 71.0379 3.07 71.5179 3.99C72.0179 4.91 72.3079 5.99 72.3879 7.23H67.7079C67.4879 6.05 67.0079 5.18 66.2679 4.62C65.5279 4.06 64.6179 3.78 63.5379 3.78C62.6979 3.78 61.9179 3.99 61.1979 4.41C60.4779 4.81 59.8879 5.49 59.4279 6.45C58.9879 7.41 58.7679 8.73 58.7679 10.41V11.01C58.7679 12.33 58.9079 13.44 59.1879 14.34C59.4679 15.22 59.8379 15.93 60.2979 16.47C60.7579 16.99 61.2679 17.37 61.8279 17.61C62.3879 17.83 62.9579 17.94 63.5379 17.94C64.6779 17.94 65.6179 17.65 66.3579 17.07C67.0979 16.47 67.5479 15.61 67.7079 14.49H72.3879C72.2879 15.79 71.9979 16.91 71.5179 17.85C71.0379 18.77 70.4079 19.52 69.6279 20.1C68.8479 20.66 67.9379 21.07 66.8979 21.33C65.8579 21.59 64.7379 21.72 63.5379 21.72Z" fill="white" fill-opacity="0.92"/>
<path d="M75.9945 21.36V0.359999H80.4645V17.64H90.0645V21.36H75.9945Z" fill="white" fill-opacity="0.92"/>
<path d="M101.302 21.72C99.5016 21.72 97.9416 21.4 96.6216 20.76C95.3016 20.12 94.2816 19.15 93.5616 17.85C92.8416 16.55 92.4816 14.92 92.4816 12.96V0.359999H96.9516V12.54C96.9516 14.34 97.3016 15.69 98.0016 16.59C98.7016 17.49 99.8016 17.94 101.302 17.94C102.802 17.94 103.902 17.49 104.602 16.59C105.302 15.69 105.652 14.35 105.652 12.57V0.359999H110.122V12.96C110.122 14.92 109.762 16.55 109.042 17.85C108.342 19.15 107.332 20.12 106.012 20.76C104.692 21.4 103.122 21.72 101.302 21.72Z" fill="white" fill-opacity="0.92"/>
<path d="M122.166 21.72C120.306 21.72 118.756 21.46 117.516 20.94C116.276 20.42 115.326 19.7 114.666 18.78C114.026 17.84 113.676 16.75 113.616 15.51H118.116C118.276 16.29 118.636 16.89 119.196 17.31C119.776 17.73 120.766 17.94 122.166 17.94C123.606 17.94 124.636 17.75 125.256 17.37C125.896 16.97 126.216 16.41 126.216 15.69C126.216 15.09 126.026 14.6 125.646 14.22C125.286 13.84 124.726 13.52 123.966 13.26C123.206 12.98 122.216 12.72 120.996 12.48C119.576 12.2 118.356 11.81 117.336 11.31C116.316 10.81 115.536 10.13 114.996 9.27C114.476 8.41 114.216 7.32 114.216 6C114.216 4.78 114.536 3.73 115.176 2.85C115.816 1.95 116.736 1.25 117.936 0.749999C119.136 0.25 120.546 0 122.166 0C123.926 0 125.366 0.25 126.486 0.749999C127.626 1.23 128.486 1.91 129.066 2.79C129.666 3.67 130.016 4.71 130.116 5.91H125.646C125.486 5.19 125.156 4.66 124.656 4.32C124.156 3.96 123.326 3.78 122.166 3.78C120.986 3.78 120.116 3.97 119.556 4.35C118.996 4.73 118.716 5.24 118.716 5.88C118.716 6.66 119.096 7.27 119.856 7.71C120.636 8.15 121.856 8.53 123.516 8.85C124.656 9.07 125.666 9.34 126.546 9.66C127.446 9.98 128.206 10.4 128.826 10.92C129.446 11.42 129.916 12.03 130.236 12.75C130.556 13.47 130.716 14.34 130.716 15.36C130.716 16.64 130.376 17.76 129.696 18.72C129.036 19.68 128.066 20.42 126.786 20.94C125.526 21.46 123.986 21.72 122.166 21.72Z" fill="white" fill-opacity="0.92"/>
<path d="M139.245 21.36V4.08H132.495V0.359999H150.465V4.08H143.715V21.36H139.245Z" fill="white" fill-opacity="0.92"/>
<path d="M153.485 21.36V0.359999H168.125V4.08H157.985V8.76H167.225V12.36H157.985V17.64H168.125V21.36H153.485Z" fill="white" fill-opacity="0.92"/>
<path d="M172.088 21.36V0.359999H180.578C182.338 0.359999 183.798 0.639999 184.958 1.2C186.138 1.76 187.028 2.55 187.628 3.57C188.228 4.57 188.528 5.75 188.528 7.11C188.528 8.55 188.158 9.81 187.418 10.89C186.678 11.95 185.548 12.72 184.028 13.2L189.128 21.36H183.938L179.528 13.68H176.558V21.36H172.088ZM176.558 10.14H179.708C181.368 10.14 182.508 9.89 183.128 9.39C183.748 8.87 184.058 8.11 184.058 7.11C184.058 6.11 183.748 5.36 183.128 4.86C182.508 4.34 181.368 4.08 179.708 4.08H176.558V10.14Z" fill="white" fill-opacity="0.92"/>
<path d="M200.125 21.72C198.265 21.72 196.715 21.46 195.475 20.94C194.235 20.42 193.285 19.7 192.625 18.78C191.985 17.84 191.635 16.75 191.575 15.51H196.075C196.235 16.29 196.595 16.89 197.155 17.31C197.735 17.73 198.725 17.94 200.125 17.94C201.565 17.94 202.595 17.75 203.215 17.37C203.855 16.97 204.175 16.41 204.175 15.69C204.175 15.09 203.985 14.6 203.605 14.22C203.245 13.84 202.685 13.52 201.925 13.26C201.165 12.98 200.175 12.72 198.955 12.48C197.535 12.2 196.315 11.81 195.295 11.31C194.275 10.81 193.495 10.13 192.955 9.27C192.435 8.41 192.175 7.32 192.175 6C192.175 4.78 192.495 3.73 193.135 2.85C193.775 1.95 194.695 1.25 195.895 0.749999C197.095 0.25 198.505 0 200.125 0C201.885 0 203.325 0.25 204.445 0.749999C205.585 1.23 206.445 1.91 207.025 2.79C207.625 3.67 207.975 4.71 208.075 5.91H203.605C203.445 5.19 203.115 4.66 202.615 4.32C202.115 3.96 201.285 3.78 200.125 3.78C198.945 3.78 198.075 3.97 197.515 4.35C196.955 4.73 196.675 5.24 196.675 5.88C196.675 6.66 197.055 7.27 197.815 7.71C198.595 8.15 199.815 8.53 201.475 8.85C202.615 9.07 203.625 9.34 204.505 9.66C205.405 9.98 206.165 10.4 206.785 10.92C207.405 11.42 207.875 12.03 208.195 12.75C208.515 13.47 208.675 14.34 208.675 15.36C208.675 16.64 208.335 17.76 207.655 18.72C206.995 19.68 206.025 20.42 204.745 20.94C203.485 21.46 201.945 21.72 200.125 21.72Z" fill="white" fill-opacity="0.92"/>
<path fill-rule="evenodd" clip-rule="evenodd" d="M97.7017 29.8714C96.9278 29.874 96.172 30.1097 95.5298 30.5486C94.8876 30.9876 94.3878 31.6102 94.0934 32.3378C93.799 33.0654 93.7234 33.8653 93.8759 34.6366C94.0285 35.4078 94.4024 36.1159 94.9506 36.6712C95.4987 37.2266 96.1964 37.6044 96.9556 37.7569C97.7148 37.9094 98.5015 37.8298 99.2162 37.5282C99.931 37.2265 100.542 36.7163 100.971 36.062C101.401 35.4077 101.63 34.6386 101.63 33.8519C101.63 33.328 101.529 32.8094 101.331 32.3255C101.134 31.8417 100.844 31.4023 100.479 31.0325C100.114 30.6627 99.6808 30.3698 99.2042 30.1705C98.7276 29.9713 98.217 29.8696 97.7017 29.8714ZM97.7017 31.5989C98.1421 31.5989 98.5726 31.7317 98.9388 31.9804C99.305 32.2291 99.5904 32.5827 99.7589 32.9963C99.9275 33.4099 99.9716 33.865 99.8856 34.3041C99.7997 34.7432 99.5877 35.1466 99.2762 35.4631C98.9648 35.7797 98.5681 35.9953 98.1361 36.0826C97.7042 36.17 97.2565 36.1251 96.8496 35.9538C96.4427 35.7825 96.0949 35.4924 95.8503 35.1201C95.6056 34.7479 95.475 34.3102 95.475 33.8625C95.475 33.2622 95.7096 32.6864 96.1272 32.2619C96.5448 31.8374 97.1111 31.5989 97.7017 31.5989Z" fill="white" fill-opacity="0.92"/>
<path fill-rule="evenodd" clip-rule="evenodd" d="M74.8446 29.8713C77.0374 29.8713 78.4235 31.7289 78.4235 33.8518C78.4235 35.9748 77.0374 37.8324 74.8446 37.8324C74.4186 37.8311 73.9972 37.7439 73.6046 37.5758C73.2121 37.4077 72.8563 37.1621 72.5578 36.8532V37.6864H70.8584V27H72.4873V30.9169C72.7868 30.5862 73.1498 30.3214 73.5539 30.1388C73.958 29.9563 74.3946 29.8598 74.8367 29.8554L74.8446 29.8713ZM74.6122 36.2402C75.9175 36.2402 76.6797 35.123 76.6797 33.8731C76.6797 32.6232 75.9227 31.506 74.6122 31.506C73.3018 31.506 72.5239 32.6099 72.5239 33.8731C72.5239 35.1362 73.2966 36.2242 74.6122 36.2242V36.2402Z" fill="white" fill-opacity="0.92"/>
<path fill-rule="evenodd" clip-rule="evenodd" d="M62.484 37.7077L61.6591 35.3512H56.6287L55.8012 37.7077H54L57.7251 27.0743H60.5627L64.2904 37.7077H62.484ZM58.939 28.7568L57.2187 33.6688H61.0691L59.3462 28.7568H58.939Z" fill="white" fill-opacity="0.92"/>
<path fill-rule="evenodd" clip-rule="evenodd" d="M120.95 30.0173V37.7077H119.251V31.6705H116.982V37.7077H115.283V31.6705H113.015V37.7077H111.315V30.0173H120.95Z" fill="white" fill-opacity="0.92"/>
<path fill-rule="evenodd" clip-rule="evenodd" d="M87.6175 31.6706H85.5918V36.0518H87.474V37.7077H83.8924V31.6706H82.4436V30.0173H83.8924V28.104H85.5918V30.0173H87.6175V31.6706Z" fill="white" fill-opacity="0.92"/>
<path fill-rule="evenodd" clip-rule="evenodd" d="M79.7651 37.5431V30.0173H81.4645V37.7077H79.7651V37.5431Z" fill="white" fill-opacity="0.92"/>
<path d="M81.5508 27.0743H79.6921V29.0222H81.5508V27.0743Z" fill="white" fill-opacity="0.92"/>
<path fill-rule="evenodd" clip-rule="evenodd" d="M69.8062 30.0173V31.6705H66.7702V37.7077H65.0708V30.0173H69.8062Z" fill="white" fill-opacity="0.92"/>
<path fill-rule="evenodd" clip-rule="evenodd" d="M93.6216 30.0173V31.6705H90.5856V37.7077H88.8862V30.0173H93.6216Z" fill="white" fill-opacity="0.92"/>
<path fill-rule="evenodd" clip-rule="evenodd" d="M106.347 29.8713C105.573 29.8713 104.816 30.1048 104.172 30.5422C103.528 30.9796 103.026 31.6012 102.73 32.3286C102.433 33.0559 102.356 33.8563 102.507 34.6284C102.658 35.4006 103.031 36.1099 103.579 36.6665C104.126 37.2232 104.824 37.6023 105.583 37.7559C106.343 37.9095 107.13 37.8307 107.846 37.5294C108.561 37.2281 109.173 36.7179 109.603 36.0633C110.033 35.4088 110.263 34.6392 110.263 33.8519C110.263 32.7962 109.85 31.7837 109.116 31.0372C108.382 30.2907 107.386 29.8713 106.347 29.8713ZM106.347 31.5989C106.788 31.5989 107.218 31.7316 107.584 31.9804C107.951 32.2291 108.236 32.5826 108.405 32.9963C108.573 33.4099 108.617 33.865 108.531 34.3041C108.445 34.7432 108.233 35.1465 107.922 35.4631C107.61 35.7797 107.214 35.9953 106.782 36.0826C106.35 36.1699 105.902 36.1251 105.495 35.9538C105.088 35.7825 104.741 35.4923 104.496 35.1201C104.251 34.7478 104.121 34.3102 104.121 33.8625C104.121 33.2624 104.356 32.687 104.774 32.2627C105.191 31.8383 105.757 31.5996 106.347 31.5989Z" fill="white" fill-opacity="0.92"/>
</svg>
